<svg width="933" height="29" viewBox="0 0 933 29" fill="none" xmlns="http://www.w3.org/2000/svg">
<path d="M11.6406 1.21094C13.4453 1.21094 15.1445 1.36914 16.7383 1.68555C18.332 2.00195 19.7266 2.44141 20.9219 3.00391C22.1172 3.56641 23.0605 4.24609 23.752 5.04297C24.4434 5.82812 24.7891 6.69531 24.7891 7.64453V21.6367C24.7891 22.5859 24.4434 23.459 23.752 24.2559C23.0605 25.041 22.1172 25.7148 20.9219 26.2773C19.7266 26.8398 18.332 27.2793 16.7383 27.5957C15.1445 27.9121 13.4453 28.0703 11.6406 28.0703C10.6328 28.0703 9.60156 28.0352 8.54688 27.9648C7.49219 27.8828 6.4668 27.7832 5.4707 27.666C4.48633 27.5371 3.56055 27.3906 2.69336 27.2266C1.82617 27.0625 1.08203 26.8867 0.460938 26.6992V2.58203C1.08203 2.39453 1.82617 2.21875 2.69336 2.05469C3.56055 1.89063 4.48633 1.75 5.4707 1.63281C6.4668 1.50391 7.49219 1.4043 8.54688 1.33398C9.60156 1.25195 10.6328 1.21094 11.6406 1.21094ZM11.7109 5.18359C10.6445 5.18359 9.71875 5.21875 8.93359 5.28906C8.14844 5.34766 7.47461 5.42969 6.91211 5.53516C6.34961 5.62891 5.88086 5.73438 5.50586 5.85156C5.14258 5.95703 4.84375 6.05078 4.60938 6.13281V23.1484C4.84375 23.2422 5.14258 23.3418 5.50586 23.4473C5.88086 23.5527 6.34961 23.6582 6.91211 23.7637C7.47461 23.8574 8.14844 23.9395 8.93359 24.0098C9.71875 24.0684 10.6445 24.0977 11.7109 24.0977C13.0234 24.0977 14.2012 23.9922 15.2441 23.7812C16.2988 23.5703 17.1836 23.2891 17.8984 22.9375C18.625 22.5859 19.1816 22.1816 19.5684 21.7246C19.9551 21.2559 20.1484 20.7695 20.1484 20.2656V9.01562C20.1484 8.51172 19.9551 8.03125 19.5684 7.57422C19.1816 7.10547 18.625 6.69531 17.8984 6.34375C17.1836 5.99219 16.2988 5.71094 15.2441 5.5C14.2012 5.28906 13.0234 5.18359 11.7109 5.18359ZM36.2852 1.49219C36.2266 2.01953 36.1738 2.58203 36.127 3.17969C36.0918 3.77734 36.0742 4.375 36.0742 4.97266C36.0742 5.98047 36.2031 6.87109 36.4609 7.64453C36.7305 8.40625 37.0938 9.0918 37.5508 9.70117C38.0078 10.2988 38.5352 10.8379 39.1328 11.3184C39.7422 11.7871 40.3867 12.2266 41.0664 12.6367C41.7461 12.2266 42.3906 11.7871 43 11.3184C43.6094 10.8379 44.1426 10.2988 44.5996 9.70117C45.0684 9.0918 45.4375 8.40625 45.707 7.64453C45.9883 6.87109 46.1289 5.98047 46.1289 4.97266C46.1289 4.375 46.1055 3.77734 46.0586 3.17969C46.0117 2.58203 45.9531 2.01953 45.8828 1.49219C46.8438 1.52734 47.7578 1.5918 48.625 1.68555C49.5039 1.76758 50.2773 1.85547 50.9453 1.94922C51.7305 2.06641 52.457 2.18359 53.125 2.30078V6.76562C52.9609 6.71875 52.7441 6.66016 52.4746 6.58984C52.2051 6.51953 51.9238 6.44922 51.6309 6.37891C51.3379 6.30859 51.0508 6.24414 50.7695 6.18555C50.5 6.12695 50.2773 6.08594 50.1016 6.0625C50.0898 7.21094 49.9434 8.23047 49.6621 9.12109C49.3809 10.0117 48.9941 10.8086 48.502 11.5117C48.0215 12.2148 47.459 12.8359 46.8145 13.375C46.1699 13.9141 45.4844 14.4062 44.7578 14.8516L43.1758 15.7656V24.0977C44.7109 24.0508 46.0879 23.9512 47.3066 23.7988C48.5254 23.6465 49.5684 23.4883 50.4355 23.3242C51.4434 23.125 52.3398 22.9141 53.125 22.6914V27.1562C50.9336 27.5312 48.8301 27.7832 46.8145 27.9121C44.7988 28.041 42.9062 28.1055 41.1367 28.1055C39.332 28.1055 37.416 28.041 35.3887 27.9121C33.373 27.7832 31.2578 27.5312 29.043 27.1562V22.6914C29.8281 22.9141 30.7246 23.125 31.7324 23.3242C32.5996 23.4883 33.6426 23.6465 34.8613 23.7988C36.0801 23.9512 37.457 24.0508 38.9922 24.0977V15.7656L37.4453 14.8516C36.707 14.4062 36.0156 13.9141 35.3711 13.375C34.7266 12.8359 34.1641 12.2148 33.6836 11.5117C33.2031 10.8086 32.8223 10.0117 32.541 9.12109C32.2598 8.23047 32.1133 7.21094 32.1016 6.0625C31.9258 6.08594 31.6973 6.12695 31.416 6.18555C31.1465 6.24414 30.8594 6.30859 30.5547 6.37891C30.2617 6.44922 29.9746 6.51953 29.6934 6.58984C29.4238 6.66016 29.207 6.71875 29.043 6.76562V2.30078C29.7109 2.18359 30.4375 2.06641 31.2227 1.94922C31.8906 1.85547 32.6582 1.76758 33.5254 1.68555C34.4043 1.5918 35.3242 1.52734 36.2852 1.49219ZM77.7344 21.0742V1.49219C78.7422 1.52734 79.6855 1.5918 80.5645 1.68555C81.4551 1.76758 82.2402 1.85547 82.9199 1.94922C83.7051 2.06641 84.4375 2.18359 85.1172 2.30078V6.76562C84.1797 6.48438 83.1016 6.23828 81.8828 6.02734V23.7461C82.5156 23.6523 83.0957 23.541 83.623 23.4121C84.1621 23.2832 84.6602 23.1484 85.1172 23.0078V27.1562C84.2734 27.2969 83.5059 27.4141 82.8145 27.5078C82.123 27.6016 81.4785 27.6777 80.8809 27.7363C80.2949 27.7949 79.7441 27.8418 79.2285 27.877C78.7129 27.9121 78.2148 27.9414 77.7344 27.9648L65.957 8.41797V27.9648C65.4766 27.9414 64.9785 27.9121 64.4629 27.877C63.9473 27.8418 63.3965 27.7949 62.8105 27.7363C62.2246 27.6777 61.5859 27.6016 60.8945 27.5078C60.2031 27.4141 59.4414 27.2969 58.6094 27.1562V22.6914C59.4766 22.9727 60.5547 23.2188 61.8438 23.4297V5.67578C61.2227 5.78125 60.6426 5.89844 60.1035 6.02734C59.5645 6.15625 59.0664 6.28516 58.6094 6.41406V2.30078C59.2656 2.18359 59.9863 2.06641 60.7715 1.94922C61.4395 1.85547 62.2188 1.76758 63.1094 1.68555C64 1.5918 64.9492 1.52734 65.957 1.49219L77.7344 21.0742ZM103.082 0.542969C103.809 0.542969 104.547 0.619141 105.297 0.771484C106.047 0.912109 106.715 1.10547 107.301 1.35156C108.332 3.15625 109.27 4.99609 110.113 6.87109C110.969 8.73438 111.73 10.6562 112.398 12.6367C112.855 12.6953 113.318 12.7598 113.787 12.8301C114.256 12.8887 114.73 12.9531 115.211 13.0234V17.5234L113.699 17.1016C114.121 18.8477 114.479 20.6289 114.771 22.4453C115.064 24.2617 115.281 26.1133 115.422 28H111.238C111.062 25.9844 110.77 23.9922 110.359 22.0234C109.949 20.0547 109.48 18.168 108.953 16.3633C107.816 16.2695 106.732 16.1992 105.701 16.1523C104.682 16.1055 103.809 16.082 103.082 16.082C102.109 16.082 101.143 16.0996 100.182 16.1348C99.2207 16.1699 98.2539 16.2344 97.2812 16.3281C96.7539 18.1328 96.2793 20.0195 95.8574 21.9883C95.4473 23.957 95.1602 25.9609 94.9961 28H90.8125C90.9414 26.1133 91.1465 24.2676 91.4277 22.4629C91.7207 20.6582 92.0781 18.8828 92.5 17.1367L91.1289 17.5234V13.0234L93.8359 12.6367C94.4922 10.6562 95.2422 8.73438 96.0859 6.87109C96.9414 4.99609 97.8906 3.15625 98.9336 1.35156C99.5195 1.10547 100.182 0.912109 100.92 0.771484C101.658 0.619141 102.379 0.542969 103.082 0.542969ZM103.082 12.1094C103.785 12.1094 104.512 12.1211 105.262 12.1445C106.012 12.1562 106.785 12.1914 107.582 12.25C106.984 10.6211 106.393 9.20898 105.807 8.01367C105.232 6.80664 104.734 5.875 104.312 5.21875C104.102 5.125 103.902 5.06055 103.715 5.02539C103.527 4.99023 103.316 4.97266 103.082 4.97266C102.707 4.97266 102.32 5.05469 101.922 5.21875C101.5 5.875 100.996 6.80664 100.41 8.01367C99.8242 9.20898 99.2383 10.6211 98.6523 12.25C99.4258 12.1914 100.182 12.1562 100.92 12.1445C101.67 12.1211 102.391 12.1094 103.082 12.1094ZM137.359 15.4492L146.535 1.38672C147.531 1.44531 148.475 1.52148 149.365 1.61523C150.256 1.69727 151.035 1.78516 151.703 1.87891C152.488 1.98438 153.215 2.08984 153.883 2.19531V6.23828L150.613 5.5V23.6406L153.883 22.9023V27.2617C152.641 27.5078 151.416 27.6895 150.209 27.8066C149.002 27.9238 147.777 28.0117 146.535 28.0703V8.76953L137.359 23.0078L128.043 8.73438V28.0703C127.047 28.0117 126.104 27.9414 125.213 27.8594C124.322 27.7773 123.543 27.6895 122.875 27.5957C122.09 27.4902 121.363 27.3789 120.695 27.2617V22.9023L123.965 23.6406V5.46484L120.695 6.20312V2.16016C121.363 2.05469 122.09 1.94922 122.875 1.84375C123.543 1.75 124.322 1.66211 125.213 1.58008C126.104 1.48633 127.047 1.41016 128.043 1.35156L137.359 15.4492ZM171.461 1.24609C173.277 1.24609 175.193 1.31055 177.209 1.43945C179.225 1.56836 181.328 1.82031 183.52 2.19531V6.66016C182.734 6.4375 181.838 6.22656 180.83 6.02734C179.963 5.86328 178.92 5.70508 177.701 5.55273C176.482 5.40039 175.105 5.30078 173.57 5.25391V23.9922C175.105 23.9453 176.482 23.8457 177.701 23.6934C178.92 23.541 179.963 23.3828 180.83 23.2188C181.838 23.0195 182.734 22.8086 183.52 22.5859V27.0508C181.328 27.4258 179.225 27.6777 177.209 27.8066C175.193 27.9355 173.277 28 171.461 28C169.691 28 167.799 27.9355 165.783 27.8066C163.768 27.6777 161.652 27.4258 159.438 27.0508V22.5859C160.223 22.8086 161.119 23.0195 162.127 23.2188C162.994 23.3828 164.037 23.541 165.256 23.6934C166.475 23.8457 167.852 23.9453 169.387 23.9922V5.25391C167.852 5.30078 166.475 5.40039 165.256 5.55273C164.037 5.70508 162.994 5.86328 162.127 6.02734C161.119 6.22656 160.223 6.4375 159.438 6.66016V2.19531C161.652 1.82031 163.768 1.56836 165.783 1.43945C167.799 1.31055 169.691 1.24609 171.461 1.24609ZM200.922 0.753906C202.691 0.753906 204.367 0.912109 205.949 1.22852C207.531 1.5332 208.908 1.9668 210.08 2.5293C211.264 3.0918 212.201 3.76562 212.893 4.55078C213.584 5.32422 213.93 6.17969 213.93 7.11719V10.2109H209.289V8.48828C209.289 7.98438 209.096 7.50391 208.709 7.04688C208.322 6.57812 207.766 6.17383 207.039 5.83398C206.324 5.48242 205.451 5.20703 204.42 5.00781C203.389 4.79688 202.223 4.69141 200.922 4.69141C199.668 4.69141 198.525 4.79102 197.494 4.99023C196.463 5.17773 195.578 5.44141 194.84 5.78125C194.102 6.12109 193.527 6.52539 193.117 6.99414C192.719 7.45117 192.52 7.94922 192.52 8.48828V20.8984C192.52 21.4141 192.719 21.9004 193.117 22.3574C193.527 22.8145 194.102 23.2129 194.84 23.5527C195.578 23.8809 196.463 24.1445 197.494 24.3438C198.525 24.5312 199.668 24.625 200.922 24.625C202.223 24.625 203.389 24.5254 204.42 24.3262C205.451 24.1152 206.324 23.8398 207.039 23.5C207.766 23.1602 208.322 22.7676 208.709 22.3223C209.096 21.8652 209.289 21.3906 209.289 20.8984V19.1406H213.93V22.2344C213.93 22.8555 213.771 23.4473 213.455 24.0098C213.139 24.5605 212.693 25.0703 212.119 25.5391C211.557 26.0078 210.877 26.4297 210.08 26.8047C209.295 27.168 208.416 27.4844 207.443 27.7539C206.482 28.0117 205.451 28.2109 204.35 28.3516C203.248 28.4922 202.105 28.5625 200.922 28.5625C199.738 28.5625 198.596 28.4922 197.494 28.3516C196.393 28.2109 195.355 28.0117 194.383 27.7539C193.422 27.4844 192.543 27.168 191.746 26.8047C190.961 26.4297 190.281 26.0078 189.707 25.5391C189.145 25.0703 188.705 24.5605 188.389 24.0098C188.072 23.4473 187.914 22.8555 187.914 22.2344V7.11719C187.914 6.49609 188.072 5.9043 188.389 5.3418C188.705 4.7793 189.145 4.26367 189.707 3.79492C190.281 3.32617 190.961 2.9043 191.746 2.5293C192.543 2.1543 193.422 1.83789 194.383 1.58008C195.355 1.31055 196.393 1.10547 197.494 0.964844C198.596 0.824219 199.738 0.753906 200.922 0.753906ZM243.637 1.14062C244.809 1.14062 246.004 1.19922 247.223 1.31641C248.453 1.42188 249.648 1.61523 250.809 1.89648C251.969 2.16602 253.059 2.54688 254.078 3.03906C255.098 3.51953 255.988 4.13477 256.75 4.88477C257.523 5.62305 258.133 6.51367 258.578 7.55664C259.023 8.58789 259.246 9.80078 259.246 11.1953C259.246 12.6133 259.053 13.8613 258.666 14.9395C258.291 16.0176 257.758 16.9551 257.066 17.752C256.387 18.5488 255.572 19.2168 254.623 19.7559C253.686 20.2832 252.654 20.7109 251.529 21.0391C250.404 21.3555 249.209 21.584 247.943 21.7246C246.678 21.8535 245.383 21.918 244.059 21.918C243.227 21.918 242.4 21.8945 241.58 21.8477C240.76 21.8008 239.934 21.7422 239.102 21.6719V27.9648H234.742V2.16016C235 2.07812 235.41 1.97852 235.973 1.86133C236.547 1.74414 237.221 1.63281 237.994 1.52734C238.779 1.42188 239.652 1.33398 240.613 1.26367C241.574 1.18164 242.582 1.14062 243.637 1.14062ZM244.902 5.00781C244.129 5.00781 243.391 5.04297 242.688 5.11328C241.984 5.17188 241.369 5.24219 240.842 5.32422C240.209 5.41797 239.629 5.52344 239.102 5.64062V17.6641C239.477 17.7461 239.893 17.8164 240.35 17.875C240.736 17.9336 241.188 17.9863 241.703 18.0332C242.219 18.0684 242.77 18.0859 243.355 18.0859C244.117 18.0859 244.92 18.0684 245.764 18.0332C246.619 17.9863 247.463 17.8867 248.295 17.7344C249.139 17.582 249.936 17.3594 250.686 17.0664C251.447 16.7617 252.115 16.3633 252.689 15.8711C253.275 15.3672 253.738 14.7461 254.078 14.0078C254.43 13.2695 254.605 12.3789 254.605 11.3359C254.605 10.4688 254.465 9.70703 254.184 9.05078C253.902 8.39453 253.521 7.83203 253.041 7.36328C252.561 6.89453 251.998 6.50781 251.354 6.20312C250.721 5.89844 250.041 5.6582 249.314 5.48242C248.6 5.30664 247.861 5.18359 247.1 5.11328C246.35 5.04297 245.617 5.00781 244.902 5.00781ZM271.832 1.14062C273.004 1.14062 274.199 1.19922 275.418 1.31641C276.648 1.42188 277.844 1.61523 279.004 1.89648C280.164 2.16602 281.254 2.54688 282.273 3.03906C283.293 3.51953 284.184 4.13477 284.945 4.88477C285.719 5.62305 286.328 6.51367 286.773 7.55664C287.219 8.58789 287.441 9.80078 287.441 11.1953C287.441 13.1172 287.096 14.7402 286.404 16.0645C285.713 17.377 284.77 18.4375 283.574 19.2461C284.078 20.0195 284.512 20.8281 284.875 21.6719C285.238 22.5156 285.531 23.3359 285.754 24.1328C285.988 24.918 286.158 25.6504 286.264 26.3301C286.369 27.0098 286.422 27.5781 286.422 28.0352H281.922C281.922 27.3203 281.863 26.6465 281.746 26.0137C281.629 25.3691 281.465 24.7598 281.254 24.1855C281.043 23.5996 280.797 23.0488 280.516 22.5332C280.246 22.0176 279.953 21.5195 279.637 21.0391C278.523 21.3555 277.346 21.584 276.104 21.7246C274.861 21.8535 273.566 21.918 272.219 21.918C271.41 21.918 270.59 21.8945 269.758 21.8477C268.926 21.8008 268.105 21.7422 267.297 21.6719V27.9648H262.938V2.16016C263.195 2.07812 263.605 1.97852 264.168 1.86133C264.742 1.74414 265.416 1.63281 266.189 1.52734C266.975 1.42188 267.848 1.33398 268.809 1.26367C269.77 1.18164 270.777 1.14062 271.832 1.14062ZM273.098 5.00781C272.324 5.00781 271.586 5.04297 270.883 5.11328C270.18 5.17188 269.564 5.24219 269.037 5.32422C268.404 5.41797 267.824 5.52344 267.297 5.64062V17.6641C267.672 17.7461 268.088 17.8164 268.545 17.875C268.932 17.9336 269.383 17.9863 269.898 18.0332C270.414 18.0684 270.965 18.0859 271.551 18.0859C272.312 18.0859 273.115 18.0684 273.959 18.0332C274.814 17.9863 275.658 17.8867 276.49 17.7344C277.334 17.582 278.131 17.3594 278.881 17.0664C279.643 16.7617 280.311 16.3633 280.885 15.8711C281.471 15.3672 281.934 14.7461 282.273 14.0078C282.625 13.2695 282.801 12.3789 282.801 11.3359C282.801 10.4688 282.66 9.70703 282.379 9.05078C282.098 8.39453 281.717 7.83203 281.236 7.36328C280.756 6.89453 280.193 6.50781 279.549 6.20312C278.916 5.89844 278.236 5.6582 277.51 5.48242C276.795 5.30664 276.057 5.18359 275.295 5.11328C274.545 5.04297 273.812 5.00781 273.098 5.00781ZM304.176 0.789062C305.348 0.789062 306.484 0.859375 307.586 1C308.688 1.14062 309.719 1.3457 310.68 1.61523C311.641 1.87305 312.52 2.18945 313.316 2.56445C314.113 2.92773 314.793 3.34375 315.355 3.8125C315.918 4.28125 316.357 4.79688 316.674 5.35938C316.99 5.91016 317.148 6.49609 317.148 7.11719V22.1992C317.148 22.8203 316.99 23.4121 316.674 23.9746C316.357 24.5254 315.918 25.0352 315.355 25.5039C314.793 25.9727 314.113 26.3945 313.316 26.7695C312.52 27.1328 311.641 27.4492 310.68 27.7188C309.719 27.9766 308.688 28.1758 307.586 28.3164C306.484 28.457 305.348 28.5273 304.176 28.5273C303.004 28.5273 301.867 28.457 300.766 28.3164C299.676 28.1758 298.65 27.9766 297.689 27.7188C296.74 27.4492 295.867 27.1328 295.07 26.7695C294.273 26.3945 293.588 25.9727 293.014 25.5039C292.451 25.0352 292.012 24.5254 291.695 23.9746C291.391 23.4121 291.238 22.8203 291.238 22.1992V7.11719C291.238 6.49609 291.391 5.91016 291.695 5.35938C292.012 4.79688 292.451 4.28125 293.014 3.8125C293.588 3.34375 294.273 2.92773 295.07 2.56445C295.867 2.18945 296.74 1.87305 297.689 1.61523C298.65 1.3457 299.676 1.14062 300.766 1C301.867 0.859375 303.004 0.789062 304.176 0.789062ZM312.543 8.45312C312.543 7.94922 312.35 7.47461 311.963 7.0293C311.576 6.57227 311.02 6.17383 310.293 5.83398C309.578 5.48242 308.705 5.20703 307.674 5.00781C306.643 4.79688 305.477 4.69141 304.176 4.69141C302.922 4.69141 301.785 4.79102 300.766 4.99023C299.746 5.17773 298.867 5.44141 298.129 5.78125C297.402 6.12109 296.84 6.51953 296.441 6.97656C296.043 7.43359 295.844 7.92578 295.844 8.45312V20.8633C295.844 21.3789 296.043 21.8652 296.441 22.3223C296.84 22.7793 297.402 23.1777 298.129 23.5176C298.867 23.8574 299.746 24.127 300.766 24.3262C301.785 24.5254 302.922 24.625 304.176 24.625C305.477 24.625 306.643 24.5254 307.674 24.3262C308.705 24.1152 309.578 23.834 310.293 23.4824C311.02 23.1309 311.576 22.7324 311.963 22.2871C312.35 21.8301 312.543 21.3555 312.543 20.8633V8.45312ZM334.234 1.21094C336.004 1.21094 337.674 1.36914 339.244 1.68555C340.814 2.00195 342.186 2.44141 343.357 3.00391C344.541 3.56641 345.479 4.24023 346.17 5.02539C346.861 5.81055 347.207 6.67188 347.207 7.60938V10.457H342.637V8.94531C342.637 8.44141 342.443 7.96094 342.057 7.50391C341.67 7.04688 341.113 6.64258 340.387 6.29102C339.672 5.93945 338.793 5.66406 337.75 5.46484C336.719 5.25391 335.547 5.14844 334.234 5.14844C332.969 5.14844 331.82 5.24805 330.789 5.44727C329.758 5.64648 328.873 5.91602 328.135 6.25586C327.396 6.5957 326.828 7 326.43 7.46875C326.031 7.92578 325.832 8.41797 325.832 8.94531V20.3359C325.832 20.8516 326.031 21.3438 326.43 21.8125C326.828 22.2695 327.396 22.6738 328.135 23.0254C328.873 23.3652 329.758 23.6348 330.789 23.834C331.82 24.0332 332.969 24.1328 334.234 24.1328C335.547 24.1328 336.719 24.0332 337.75 23.834C338.793 23.623 339.672 23.3418 340.387 22.9902C341.113 22.6387 341.67 22.2344 342.057 21.7773C342.443 21.3203 342.637 20.8398 342.637 20.3359V17.8047C341.547 17.8047 340.568 17.834 339.701 17.8926C338.846 17.9512 338.113 18.0098 337.504 18.0684C336.789 18.1504 336.156 18.2383 335.605 18.332L336.062 14.0781C337.855 13.9375 339.543 13.8672 341.125 13.8672C343.246 13.8672 345.273 13.9727 347.207 14.1836V21.6719C347.207 22.6094 346.861 23.4707 346.17 24.2559C345.479 25.0293 344.541 25.6973 343.357 26.2598C342.186 26.8223 340.814 27.2617 339.244 27.5781C337.674 27.8828 336.004 28.0352 334.234 28.0352C332.465 28.0352 330.795 27.8828 329.225 27.5781C327.654 27.2617 326.277 26.8223 325.094 26.2598C323.922 25.6973 322.99 25.0293 322.299 24.2559C321.607 23.4707 321.262 22.6094 321.262 21.6719V7.60938C321.262 6.67188 321.607 5.81055 322.299 5.02539C322.99 4.24023 323.922 3.56641 325.094 3.00391C326.277 2.44141 327.654 2.00195 329.225 1.68555C330.795 1.36914 332.465 1.21094 334.234 1.21094ZM361.867 1.14062C363.039 1.14062 364.234 1.19922 365.453 1.31641C366.684 1.42188 367.879 1.61523 369.039 1.89648C370.199 2.16602 371.289 2.54688 372.309 3.03906C373.328 3.51953 374.219 4.13477 374.98 4.88477C375.754 5.62305 376.363 6.51367 376.809 7.55664C377.254 8.58789 377.477 9.80078 377.477 11.1953C377.477 13.1172 377.131 14.7402 376.439 16.0645C375.748 17.377 374.805 18.4375 373.609 19.2461C374.113 20.0195 374.547 20.8281 374.91 21.6719C375.273 22.5156 375.566 23.3359 375.789 24.1328C376.023 24.918 376.193 25.6504 376.299 26.3301C376.404 27.0098 376.457 27.5781 376.457 28.0352H371.957C371.957 27.3203 371.898 26.6465 371.781 26.0137C371.664 25.3691 371.5 24.7598 371.289 24.1855C371.078 23.5996 370.832 23.0488 370.551 22.5332C370.281 22.0176 369.988 21.5195 369.672 21.0391C368.559 21.3555 367.381 21.584 366.139 21.7246C364.896 21.8535 363.602 21.918 362.254 21.918C361.445 21.918 360.625 21.8945 359.793 21.8477C358.961 21.8008 358.141 21.7422 357.332 21.6719V27.9648H352.973V2.16016C353.23 2.07812 353.641 1.97852 354.203 1.86133C354.777 1.74414 355.451 1.63281 356.225 1.52734C357.01 1.42188 357.883 1.33398 358.844 1.26367C359.805 1.18164 360.812 1.14062 361.867 1.14062ZM363.133 5.00781C362.359 5.00781 361.621 5.04297 360.918 5.11328C360.215 5.17188 359.6 5.24219 359.072 5.32422C358.439 5.41797 357.859 5.52344 357.332 5.64062V17.6641C357.707 17.7461 358.123 17.8164 358.58 17.875C358.967 17.9336 359.418 17.9863 359.934 18.0332C360.449 18.0684 361 18.0859 361.586 18.0859C362.348 18.0859 363.15 18.0684 363.994 18.0332C364.85 17.9863 365.693 17.8867 366.525 17.7344C367.369 17.582 368.166 17.3594 368.916 17.0664C369.678 16.7617 370.346 16.3633 370.92 15.8711C371.506 15.3672 371.969 14.7461 372.309 14.0078C372.66 13.2695 372.836 12.3789 372.836 11.3359C372.836 10.4688 372.695 9.70703 372.414 9.05078C372.133 8.39453 371.752 7.83203 371.271 7.36328C370.791 6.89453 370.229 6.50781 369.584 6.20312C368.951 5.89844 368.271 5.6582 367.545 5.48242C366.83 5.30664 366.092 5.18359 365.33 5.11328C364.58 5.04297 363.848 5.00781 363.133 5.00781ZM393.895 0.542969C394.621 0.542969 395.359 0.619141 396.109 0.771484C396.859 0.912109 397.527 1.10547 398.113 1.35156C399.145 3.15625 400.082 4.99609 400.926 6.87109C401.781 8.73438 402.543 10.6562 403.211 12.6367C403.668 12.6953 404.131 12.7598 404.6 12.8301C405.068 12.8887 405.543 12.9531 406.023 13.0234V17.5234L404.512 17.1016C404.934 18.8477 405.291 20.6289 405.584 22.4453C405.877 24.2617 406.094 26.1133 406.234 28H402.051C401.875 25.9844 401.582 23.9922 401.172 22.0234C400.762 20.0547 400.293 18.168 399.766 16.3633C398.629 16.2695 397.545 16.1992 396.514 16.1523C395.494 16.1055 394.621 16.082 393.895 16.082C392.922 16.082 391.955 16.0996 390.994 16.1348C390.033 16.1699 389.066 16.2344 388.094 16.3281C387.566 18.1328 387.092 20.0195 386.67 21.9883C386.26 23.957 385.973 25.9609 385.809 28H381.625C381.754 26.1133 381.959 24.2676 382.24 22.4629C382.533 20.6582 382.891 18.8828 383.312 17.1367L381.941 17.5234V13.0234L384.648 12.6367C385.305 10.6562 386.055 8.73438 386.898 6.87109C387.754 4.99609 388.703 3.15625 389.746 1.35156C390.332 1.10547 390.994 0.912109 391.732 0.771484C392.471 0.619141 393.191 0.542969 393.895 0.542969ZM393.895 12.1094C394.598 12.1094 395.324 12.1211 396.074 12.1445C396.824 12.1562 397.598 12.1914 398.395 12.25C397.797 10.6211 397.205 9.20898 396.619 8.01367C396.045 6.80664 395.547 5.875 395.125 5.21875C394.914 5.125 394.715 5.06055 394.527 5.02539C394.34 4.99023 394.129 4.97266 393.895 4.97266C393.52 4.97266 393.133 5.05469 392.734 5.21875C392.312 5.875 391.809 6.80664 391.223 8.01367C390.637 9.20898 390.051 10.6211 389.465 12.25C390.238 12.1914 390.994 12.1562 391.732 12.1445C392.482 12.1211 393.203 12.1094 393.895 12.1094ZM428.172 15.4492L437.348 1.38672C438.344 1.44531 439.287 1.52148 440.178 1.61523C441.068 1.69727 441.848 1.78516 442.516 1.87891C443.301 1.98438 444.027 2.08984 444.695 2.19531V6.23828L441.426 5.5V23.6406L444.695 22.9023V27.2617C443.453 27.5078 442.229 27.6895 441.021 27.8066C439.814 27.9238 438.59 28.0117 437.348 28.0703V8.76953L428.172 23.0078L418.855 8.73438V28.0703C417.859 28.0117 416.916 27.9414 416.025 27.8594C415.135 27.7773 414.355 27.6895 413.688 27.5957C412.902 27.4902 412.176 27.3789 411.508 27.2617V22.9023L414.777 23.6406V5.46484L411.508 6.20312V2.16016C412.176 2.05469 412.902 1.94922 413.688 1.84375C414.355 1.75 415.135 1.66211 416.025 1.58008C416.916 1.48633 417.859 1.41016 418.855 1.35156L428.172 15.4492ZM467.301 15.4492L476.477 1.38672C477.473 1.44531 478.416 1.52148 479.307 1.61523C480.197 1.69727 480.977 1.78516 481.645 1.87891C482.43 1.98438 483.156 2.08984 483.824 2.19531V6.23828L480.555 5.5V23.6406L483.824 22.9023V27.2617C482.582 27.5078 481.357 27.6895 480.15 27.8066C478.943 27.9238 477.719 28.0117 476.477 28.0703V8.76953L467.301 23.0078L457.984 8.73438V28.0703C456.988 28.0117 456.045 27.9414 455.154 27.8594C454.264 27.7773 453.484 27.6895 452.816 27.5957C452.031 27.4902 451.305 27.3789 450.637 27.2617V22.9023L453.906 23.6406V5.46484L450.637 6.20312V2.16016C451.305 2.05469 452.031 1.94922 452.816 1.84375C453.484 1.75 454.264 1.66211 455.154 1.58008C456.045 1.48633 456.988 1.41016 457.984 1.35156L467.301 15.4492ZM501.402 1.24609C503.219 1.24609 505.135 1.31055 507.15 1.43945C509.166 1.56836 511.27 1.82031 513.461 2.19531V6.66016C512.676 6.4375 511.779 6.22656 510.771 6.02734C509.904 5.86328 508.861 5.70508 507.643 5.55273C506.424 5.40039 505.047 5.30078 503.512 5.25391V23.9922C505.047 23.9453 506.424 23.8457 507.643 23.6934C508.861 23.541 509.904 23.3828 510.771 23.2188C511.779 23.0195 512.676 22.8086 513.461 22.5859V27.0508C511.27 27.4258 509.166 27.6777 507.15 27.8066C505.135 27.9355 503.219 28 501.402 28C499.633 28 497.74 27.9355 495.725 27.8066C493.709 27.6777 491.594 27.4258 489.379 27.0508V22.5859C490.164 22.8086 491.061 23.0195 492.068 23.2188C492.936 23.3828 493.979 23.541 495.197 23.6934C496.416 23.8457 497.793 23.9453 499.328 23.9922V5.25391C497.793 5.30078 496.416 5.40039 495.197 5.55273C493.979 5.70508 492.936 5.86328 492.068 6.02734C491.061 6.22656 490.164 6.4375 489.379 6.66016V2.19531C491.594 1.82031 493.709 1.56836 495.725 1.43945C497.74 1.31055 499.633 1.24609 501.402 1.24609ZM538.316 21.0742V1.49219C539.324 1.52734 540.268 1.5918 541.146 1.68555C542.037 1.76758 542.822 1.85547 543.502 1.94922C544.287 2.06641 545.02 2.18359 545.699 2.30078V6.76562C544.762 6.48438 543.684 6.23828 542.465 6.02734V23.7461C543.098 23.6523 543.678 23.541 544.205 23.4121C544.744 23.2832 545.242 23.1484 545.699 23.0078V27.1562C544.855 27.2969 544.088 27.4141 543.396 27.5078C542.705 27.6016 542.061 27.6777 541.463 27.7363C540.877 27.7949 540.326 27.8418 539.811 27.877C539.295 27.9121 538.797 27.9414 538.316 27.9648L526.539 8.41797V27.9648C526.059 27.9414 525.561 27.9121 525.045 27.877C524.529 27.8418 523.979 27.7949 523.393 27.7363C522.807 27.6777 522.168 27.6016 521.477 27.5078C520.785 27.4141 520.023 27.2969 519.191 27.1562V22.6914C520.059 22.9727 521.137 23.2188 522.426 23.4297V5.67578C521.805 5.78125 521.225 5.89844 520.686 6.02734C520.146 6.15625 519.648 6.28516 519.191 6.41406V2.30078C519.848 2.18359 520.568 2.06641 521.354 1.94922C522.021 1.85547 522.801 1.76758 523.691 1.68555C524.582 1.5918 525.531 1.52734 526.539 1.49219L538.316 21.0742ZM563.629 1.21094C565.398 1.21094 567.068 1.36914 568.639 1.68555C570.209 2.00195 571.58 2.44141 572.752 3.00391C573.936 3.56641 574.873 4.24023 575.564 5.02539C576.256 5.81055 576.602 6.67188 576.602 7.60938V10.457H572.031V8.94531C572.031 8.44141 571.838 7.96094 571.451 7.50391C571.064 7.04688 570.508 6.64258 569.781 6.29102C569.066 5.93945 568.188 5.66406 567.145 5.46484C566.113 5.25391 564.941 5.14844 563.629 5.14844C562.363 5.14844 561.215 5.24805 560.184 5.44727C559.152 5.64648 558.268 5.91602 557.529 6.25586C556.791 6.5957 556.223 7 555.824 7.46875C555.426 7.92578 555.227 8.41797 555.227 8.94531V20.3359C555.227 20.8516 555.426 21.3438 555.824 21.8125C556.223 22.2695 556.791 22.6738 557.529 23.0254C558.268 23.3652 559.152 23.6348 560.184 23.834C561.215 24.0332 562.363 24.1328 563.629 24.1328C564.941 24.1328 566.113 24.0332 567.145 23.834C568.188 23.623 569.066 23.3418 569.781 22.9902C570.508 22.6387 571.064 22.2344 571.451 21.7773C571.838 21.3203 572.031 20.8398 572.031 20.3359V17.8047C570.941 17.8047 569.963 17.834 569.096 17.8926C568.24 17.9512 567.508 18.0098 566.898 18.0684C566.184 18.1504 565.551 18.2383 565 18.332L565.457 14.0781C567.25 13.9375 568.938 13.8672 570.52 13.8672C572.641 13.8672 574.668 13.9727 576.602 14.1836V21.6719C576.602 22.6094 576.256 23.4707 575.564 24.2559C574.873 25.0293 573.936 25.6973 572.752 26.2598C571.58 26.8223 570.209 27.2617 568.639 27.5781C567.068 27.8828 565.398 28.0352 563.629 28.0352C561.859 28.0352 560.189 27.8828 558.619 27.5781C557.049 27.2617 555.672 26.8223 554.488 26.2598C553.316 25.6973 552.385 25.0293 551.693 24.2559C551.002 23.4707 550.656 22.6094 550.656 21.6719V7.60938C550.656 6.67188 551.002 5.81055 551.693 5.02539C552.385 4.24023 553.316 3.56641 554.488 3.00391C555.672 2.44141 557.049 2.00195 558.619 1.68555C560.189 1.36914 561.859 1.21094 563.629 1.21094ZM609.578 1.24609C611.383 1.24609 613.287 1.31055 615.291 1.43945C617.307 1.56836 619.422 1.82031 621.637 2.19531V6.66016C620.652 6.37891 619.656 6.15039 618.648 5.97461C617.641 5.78711 616.627 5.64062 615.607 5.53516C614.6 5.42969 613.592 5.35352 612.584 5.30664C611.576 5.25977 610.574 5.23047 609.578 5.21875C609.098 5.21875 608.564 5.23047 607.979 5.25391C607.404 5.26562 606.783 5.28906 606.115 5.32422C605.459 5.35938 604.773 5.41211 604.059 5.48242C603.344 5.55273 602.617 5.64062 601.879 5.74609V12.1445H617.242V16.4688H601.879V28H597.555V2.19531C599.746 1.82031 601.85 1.56836 603.865 1.43945C605.893 1.31055 607.797 1.24609 609.578 1.24609ZM637.281 0.789062C638.453 0.789062 639.59 0.859375 640.691 1C641.793 1.14062 642.824 1.3457 643.785 1.61523C644.746 1.87305 645.625 2.18945 646.422 2.56445C647.219 2.92773 647.898 3.34375 648.461 3.8125C649.023 4.28125 649.463 4.79688 649.779 5.35938C650.096 5.91016 650.254 6.49609 650.254 7.11719V22.1992C650.254 22.8203 650.096 23.4121 649.779 23.9746C649.463 24.5254 649.023 25.0352 648.461 25.5039C647.898 25.9727 647.219 26.3945 646.422 26.7695C645.625 27.1328 644.746 27.4492 643.785 27.7188C642.824 27.9766 641.793 28.1758 640.691 28.3164C639.59 28.457 638.453 28.5273 637.281 28.5273C636.109 28.5273 634.973 28.457 633.871 28.3164C632.781 28.1758 631.756 27.9766 630.795 27.7188C629.846 27.4492 628.973 27.1328 628.176 26.7695C627.379 26.3945 626.693 25.9727 626.119 25.5039C625.557 25.0352 625.117 24.5254 624.801 23.9746C624.496 23.4121 624.344 22.8203 624.344 22.1992V7.11719C624.344 6.49609 624.496 5.91016 624.801 5.35938C625.117 4.79688 625.557 4.28125 626.119 3.8125C626.693 3.34375 627.379 2.92773 628.176 2.56445C628.973 2.18945 629.846 1.87305 630.795 1.61523C631.756 1.3457 632.781 1.14062 633.871 1C634.973 0.859375 636.109 0.789062 637.281 0.789062ZM645.648 8.45312C645.648 7.94922 645.455 7.47461 645.068 7.0293C644.682 6.57227 644.125 6.17383 643.398 5.83398C642.684 5.48242 641.811 5.20703 640.779 5.00781C639.748 4.79688 638.582 4.69141 637.281 4.69141C636.027 4.69141 634.891 4.79102 633.871 4.99023C632.852 5.17773 631.973 5.44141 631.234 5.78125C630.508 6.12109 629.945 6.51953 629.547 6.97656C629.148 7.43359 628.949 7.92578 628.949 8.45312V20.8633C628.949 21.3789 629.148 21.8652 629.547 22.3223C629.945 22.7793 630.508 23.1777 631.234 23.5176C631.973 23.8574 632.852 24.127 633.871 24.3262C634.891 24.5254 636.027 24.625 637.281 24.625C638.582 24.625 639.748 24.5254 640.779 24.3262C641.811 24.1152 642.684 23.834 643.398 23.4824C644.125 23.1309 644.682 22.7324 645.068 22.2871C645.455 21.8301 645.648 21.3555 645.648 20.8633V8.45312ZM664.984 1.14062C666.156 1.14062 667.352 1.19922 668.57 1.31641C669.801 1.42188 670.996 1.61523 672.156 1.89648C673.316 2.16602 674.406 2.54688 675.426 3.03906C676.445 3.51953 677.336 4.13477 678.098 4.88477C678.871 5.62305 679.48 6.51367 679.926 7.55664C680.371 8.58789 680.594 9.80078 680.594 11.1953C680.594 13.1172 680.248 14.7402 679.557 16.0645C678.865 17.377 677.922 18.4375 676.727 19.2461C677.23 20.0195 677.664 20.8281 678.027 21.6719C678.391 22.5156 678.684 23.3359 678.906 24.1328C679.141 24.918 679.311 25.6504 679.416 26.3301C679.521 27.0098 679.574 27.5781 679.574 28.0352H675.074C675.074 27.3203 675.016 26.6465 674.898 26.0137C674.781 25.3691 674.617 24.7598 674.406 24.1855C674.195 23.5996 673.949 23.0488 673.668 22.5332C673.398 22.0176 673.105 21.5195 672.789 21.0391C671.676 21.3555 670.498 21.584 669.256 21.7246C668.014 21.8535 666.719 21.918 665.371 21.918C664.562 21.918 663.742 21.8945 662.91 21.8477C662.078 21.8008 661.258 21.7422 660.449 21.6719V27.9648H656.09V2.16016C656.348 2.07812 656.758 1.97852 657.32 1.86133C657.895 1.74414 658.568 1.63281 659.342 1.52734C660.127 1.42188 661 1.33398 661.961 1.26367C662.922 1.18164 663.93 1.14062 664.984 1.14062ZM666.25 5.00781C665.477 5.00781 664.738 5.04297 664.035 5.11328C663.332 5.17188 662.717 5.24219 662.189 5.32422C661.557 5.41797 660.977 5.52344 660.449 5.64062V17.6641C660.824 17.7461 661.24 17.8164 661.697 17.875C662.084 17.9336 662.535 17.9863 663.051 18.0332C663.566 18.0684 664.117 18.0859 664.703 18.0859C665.465 18.0859 666.268 18.0684 667.111 18.0332C667.967 17.9863 668.811 17.8867 669.643 17.7344C670.486 17.582 671.283 17.3594 672.033 17.0664C672.795 16.7617 673.463 16.3633 674.037 15.8711C674.623 15.3672 675.086 14.7461 675.426 14.0078C675.777 13.2695 675.953 12.3789 675.953 11.3359C675.953 10.4688 675.812 9.70703 675.531 9.05078C675.25 8.39453 674.869 7.83203 674.389 7.36328C673.908 6.89453 673.346 6.50781 672.701 6.20312C672.068 5.89844 671.389 5.6582 670.662 5.48242C669.947 5.30664 669.209 5.18359 668.447 5.11328C667.697 5.04297 666.965 5.00781 666.25 5.00781ZM707.734 11.4062C708.191 11.5 708.654 11.5645 709.123 11.5996C709.592 11.6348 710.066 11.6523 710.547 11.6523C712.094 11.6523 713.359 11.3887 714.344 10.8613C715.328 10.334 716.102 9.60742 716.664 8.68164C717.227 7.75586 717.619 6.66602 717.842 5.41211C718.064 4.14648 718.188 2.78125 718.211 1.31641C719.219 1.36328 720.168 1.43359 721.059 1.52734C721.949 1.60938 722.74 1.69727 723.432 1.79102C724.229 1.89648 724.973 2.00781 725.664 2.125V6.58984C725.488 6.53125 725.26 6.4668 724.979 6.39648C724.709 6.32617 724.404 6.25586 724.064 6.18555C723.736 6.10352 723.379 6.02734 722.992 5.95703C722.617 5.875 722.23 5.79297 721.832 5.71094C721.75 6.46094 721.627 7.20508 721.463 7.94336C721.311 8.66992 721.094 9.36719 720.812 10.0352C720.531 10.7031 720.174 11.3184 719.74 11.8809C719.318 12.4316 718.797 12.9062 718.176 13.3047C718.996 13.5742 719.723 13.9727 720.355 14.5C720.988 15.0273 721.533 15.6367 721.99 16.3281C722.459 17.0078 722.846 17.752 723.15 18.5605C723.467 19.3691 723.719 20.1895 723.906 21.0215C724.094 21.8535 724.229 22.6855 724.311 23.5176C724.393 24.3379 724.434 25.1055 724.434 25.8203C724.434 26.207 724.422 26.582 724.398 26.9453C724.387 27.2969 724.363 27.625 724.328 27.9297H720.18C720.238 27.5078 720.273 27.1035 720.285 26.7168C720.309 26.3184 720.32 25.9258 720.32 25.5391C720.32 24.0156 720.139 22.6445 719.775 21.4258C719.412 20.207 718.902 19.1758 718.246 18.332C717.59 17.4766 716.805 16.8262 715.891 16.3809C714.988 15.9238 713.992 15.6953 712.902 15.6953C712.164 15.6953 711.537 15.7129 711.021 15.748C710.506 15.7832 710.055 15.8359 709.668 15.9062C709.281 15.9648 708.936 16.0352 708.631 16.1172C708.338 16.1992 708.039 16.2812 707.734 16.3633V27.9297H703.41V5.85156C702.742 5.99219 702.121 6.12695 701.547 6.25586C700.984 6.37305 700.562 6.48438 700.281 6.58984V2.125C700.949 2.00781 701.688 1.89648 702.496 1.79102C703.176 1.69727 703.967 1.60938 704.869 1.52734C705.771 1.43359 706.727 1.36328 707.734 1.31641V11.4062ZM749.746 21.0742V1.49219C750.754 1.52734 751.697 1.5918 752.576 1.68555C753.467 1.76758 754.252 1.85547 754.932 1.94922C755.717 2.06641 756.449 2.18359 757.129 2.30078V6.76562C756.191 6.48438 755.113 6.23828 753.895 6.02734V23.7461C754.527 23.6523 755.107 23.541 755.635 23.4121C756.174 23.2832 756.672 23.1484 757.129 23.0078V27.1562C756.285 27.2969 755.518 27.4141 754.826 27.5078C754.135 27.6016 753.49 27.6777 752.893 27.7363C752.307 27.7949 751.756 27.8418 751.24 27.877C750.725 27.9121 750.227 27.9414 749.746 27.9648L737.969 8.41797V27.9648C737.488 27.9414 736.99 27.9121 736.475 27.877C735.959 27.8418 735.408 27.7949 734.822 27.7363C734.236 27.6777 733.598 27.6016 732.906 27.5078C732.215 27.4141 731.453 27.2969 730.621 27.1562V22.6914C731.488 22.9727 732.566 23.2188 733.855 23.4297V5.67578C733.234 5.78125 732.654 5.89844 732.115 6.02734C731.576 6.15625 731.078 6.28516 730.621 6.41406V2.30078C731.277 2.18359 731.998 2.06641 732.783 1.94922C733.451 1.85547 734.23 1.76758 735.121 1.68555C736.012 1.5918 736.961 1.52734 737.969 1.49219L749.746 21.0742ZM775.094 0.542969C775.82 0.542969 776.559 0.619141 777.309 0.771484C778.059 0.912109 778.727 1.10547 779.312 1.35156C780.344 3.15625 781.281 4.99609 782.125 6.87109C782.98 8.73438 783.742 10.6562 784.41 12.6367C784.867 12.6953 785.33 12.7598 785.799 12.8301C786.268 12.8887 786.742 12.9531 787.223 13.0234V17.5234L785.711 17.1016C786.133 18.8477 786.49 20.6289 786.783 22.4453C787.076 24.2617 787.293 26.1133 787.434 28H783.25C783.074 25.9844 782.781 23.9922 782.371 22.0234C781.961 20.0547 781.492 18.168 780.965 16.3633C779.828 16.2695 778.744 16.1992 777.713 16.1523C776.693 16.1055 775.82 16.082 775.094 16.082C774.121 16.082 773.154 16.0996 772.193 16.1348C771.232 16.1699 770.266 16.2344 769.293 16.3281C768.766 18.1328 768.291 20.0195 767.869 21.9883C767.459 23.957 767.172 25.9609 767.008 28H762.824C762.953 26.1133 763.158 24.2676 763.439 22.4629C763.732 20.6582 764.09 18.8828 764.512 17.1367L763.141 17.5234V13.0234L765.848 12.6367C766.504 10.6562 767.254 8.73438 768.098 6.87109C768.953 4.99609 769.902 3.15625 770.945 1.35156C771.531 1.10547 772.193 0.912109 772.932 0.771484C773.67 0.619141 774.391 0.542969 775.094 0.542969ZM775.094 12.1094C775.797 12.1094 776.523 12.1211 777.273 12.1445C778.023 12.1562 778.797 12.1914 779.594 12.25C778.996 10.6211 778.404 9.20898 777.818 8.01367C777.244 6.80664 776.746 5.875 776.324 5.21875C776.113 5.125 775.914 5.06055 775.727 5.02539C775.539 4.99023 775.328 4.97266 775.094 4.97266C774.719 4.97266 774.332 5.05469 773.934 5.21875C773.512 5.875 773.008 6.80664 772.422 8.01367C771.836 9.20898 771.25 10.6211 770.664 12.25C771.438 12.1914 772.193 12.1562 772.932 12.1445C773.682 12.1211 774.402 12.1094 775.094 12.1094ZM801.602 1.14062C802.773 1.14062 803.969 1.19922 805.188 1.31641C806.418 1.42188 807.613 1.61523 808.773 1.89648C809.934 2.16602 811.023 2.54688 812.043 3.03906C813.062 3.51953 813.953 4.13477 814.715 4.88477C815.488 5.62305 816.098 6.51367 816.543 7.55664C816.988 8.58789 817.211 9.80078 817.211 11.1953C817.211 12.6133 817.018 13.8613 816.631 14.9395C816.256 16.0176 815.723 16.9551 815.031 17.752C814.352 18.5488 813.537 19.2168 812.588 19.7559C811.65 20.2832 810.619 20.7109 809.494 21.0391C808.369 21.3555 807.174 21.584 805.908 21.7246C804.643 21.8535 803.348 21.918 802.023 21.918C801.191 21.918 800.365 21.8945 799.545 21.8477C798.725 21.8008 797.898 21.7422 797.066 21.6719V27.9648H792.707V2.16016C792.965 2.07812 793.375 1.97852 793.938 1.86133C794.512 1.74414 795.186 1.63281 795.959 1.52734C796.744 1.42188 797.617 1.33398 798.578 1.26367C799.539 1.18164 800.547 1.14062 801.602 1.14062ZM802.867 5.00781C802.094 5.00781 801.355 5.04297 800.652 5.11328C799.949 5.17188 799.334 5.24219 798.807 5.32422C798.174 5.41797 797.594 5.52344 797.066 5.64062V17.6641C797.441 17.7461 797.857 17.8164 798.314 17.875C798.701 17.9336 799.152 17.9863 799.668 18.0332C800.184 18.0684 800.734 18.0859 801.32 18.0859C802.082 18.0859 802.885 18.0684 803.729 18.0332C804.584 17.9863 805.428 17.8867 806.26 17.7344C807.104 17.582 807.9 17.3594 808.65 17.0664C809.412 16.7617 810.08 16.3633 810.654 15.8711C811.24 15.3672 811.703 14.7461 812.043 14.0078C812.395 13.2695 812.57 12.3789 812.57 11.3359C812.57 10.4688 812.43 9.70703 812.148 9.05078C811.867 8.39453 811.486 7.83203 811.006 7.36328C810.525 6.89453 809.963 6.50781 809.318 6.20312C808.686 5.89844 808.006 5.6582 807.279 5.48242C806.564 5.30664 805.826 5.18359 805.064 5.11328C804.314 5.04297 803.582 5.00781 802.867 5.00781ZM831.801 1.21094C833.395 1.21094 834.936 1.31055 836.424 1.50977C837.924 1.69727 839.266 2.02539 840.449 2.49414C841.645 2.95117 842.623 3.57227 843.385 4.35742C844.158 5.14258 844.609 6.12109 844.738 7.29297L840.168 8.55859C840.168 7.85547 839.928 7.28125 839.447 6.83594C838.979 6.37891 838.352 6.02148 837.566 5.76367C836.793 5.49414 835.902 5.30664 834.895 5.20117C833.898 5.0957 832.867 5.04297 831.801 5.04297C830.758 5.04297 829.732 5.08984 828.725 5.18359C827.717 5.27734 826.809 5.45312 826 5.71094C825.203 5.96875 824.559 6.32617 824.066 6.7832C823.574 7.24023 823.328 7.83203 823.328 8.55859V12.7422H844.738V21.8477C844.738 22.6328 844.562 23.3359 844.211 23.957C843.871 24.5664 843.396 25.0996 842.787 25.5566C842.189 26.002 841.475 26.3828 840.643 26.6992C839.822 27.0039 838.932 27.25 837.971 27.4375C837.021 27.625 836.02 27.7598 834.965 27.8418C833.91 27.9238 832.855 27.9648 831.801 27.9648C830.723 27.9648 829.662 27.9238 828.619 27.8418C827.576 27.7598 826.586 27.625 825.648 27.4375C824.711 27.25 823.838 27.0039 823.029 26.6992C822.232 26.3828 821.529 26.002 820.92 25.5566C820.311 25.0996 819.818 24.5664 819.443 23.957C819.068 23.3477 818.84 22.6445 818.758 21.8477L823.328 20.582C823.328 21.3086 823.574 21.9004 824.066 22.3574C824.559 22.8145 825.203 23.1719 826 23.4297C826.809 23.6875 827.717 23.8633 828.725 23.957C829.732 24.0508 830.758 24.0977 831.801 24.0977C832.867 24.0977 833.898 24.0508 834.895 23.957C835.902 23.8516 836.793 23.6699 837.566 23.4121C838.352 23.1426 838.979 22.7793 839.447 22.3223C839.928 21.8652 840.168 21.2852 840.168 20.582V16.293H818.758V7.29297C818.758 6.50781 818.928 5.81641 819.268 5.21875C819.619 4.60938 820.094 4.08203 820.691 3.63672C821.301 3.17969 822.021 2.79883 822.854 2.49414C823.686 2.17773 824.582 1.92578 825.543 1.73828C826.516 1.55078 827.529 1.41602 828.584 1.33398C829.65 1.25195 830.723 1.21094 831.801 1.21094ZM861.367 0.542969C862.094 0.542969 862.832 0.619141 863.582 0.771484C864.332 0.912109 865 1.10547 865.586 1.35156C866.617 3.15625 867.555 4.99609 868.398 6.87109C869.254 8.73438 870.016 10.6562 870.684 12.6367C871.141 12.6953 871.604 12.7598 872.072 12.8301C872.541 12.8887 873.016 12.9531 873.496 13.0234V17.5234L871.984 17.1016C872.406 18.8477 872.764 20.6289 873.057 22.4453C873.35 24.2617 873.566 26.1133 873.707 28H869.523C869.348 25.9844 869.055 23.9922 868.645 22.0234C868.234 20.0547 867.766 18.168 867.238 16.3633C866.102 16.2695 865.018 16.1992 863.986 16.1523C862.967 16.1055 862.094 16.082 861.367 16.082C860.395 16.082 859.428 16.0996 858.467 16.1348C857.506 16.1699 856.539 16.2344 855.566 16.3281C855.039 18.1328 854.564 20.0195 854.143 21.9883C853.732 23.957 853.445 25.9609 853.281 28H849.098C849.227 26.1133 849.432 24.2676 849.713 22.4629C850.006 20.6582 850.363 18.8828 850.785 17.1367L849.414 17.5234V13.0234L852.121 12.6367C852.777 10.6562 853.527 8.73438 854.371 6.87109C855.227 4.99609 856.176 3.15625 857.219 1.35156C857.805 1.10547 858.467 0.912109 859.205 0.771484C859.943 0.619141 860.664 0.542969 861.367 0.542969ZM861.367 12.1094C862.07 12.1094 862.797 12.1211 863.547 12.1445C864.297 12.1562 865.07 12.1914 865.867 12.25C865.27 10.6211 864.678 9.20898 864.092 8.01367C863.518 6.80664 863.02 5.875 862.598 5.21875C862.387 5.125 862.188 5.06055 862 5.02539C861.812 4.99023 861.602 4.97266 861.367 4.97266C860.992 4.97266 860.605 5.05469 860.207 5.21875C859.785 5.875 859.281 6.80664 858.695 8.01367C858.109 9.20898 857.523 10.6211 856.938 12.25C857.711 12.1914 858.467 12.1562 859.205 12.1445C859.955 12.1211 860.676 12.1094 861.367 12.1094ZM890.652 0.753906C892.422 0.753906 894.098 0.912109 895.68 1.22852C897.262 1.5332 898.639 1.9668 899.811 2.5293C900.994 3.0918 901.932 3.76562 902.623 4.55078C903.314 5.32422 903.66 6.17969 903.66 7.11719V10.2109H899.02V8.48828C899.02 7.98438 898.826 7.50391 898.439 7.04688C898.053 6.57812 897.496 6.17383 896.77 5.83398C896.055 5.48242 895.182 5.20703 894.15 5.00781C893.119 4.79688 891.953 4.69141 890.652 4.69141C889.398 4.69141 888.256 4.79102 887.225 4.99023C886.193 5.17773 885.309 5.44141 884.57 5.78125C883.832 6.12109 883.258 6.52539 882.848 6.99414C882.449 7.45117 882.25 7.94922 882.25 8.48828V20.8984C882.25 21.4141 882.449 21.9004 882.848 22.3574C883.258 22.8145 883.832 23.2129 884.57 23.5527C885.309 23.8809 886.193 24.1445 887.225 24.3438C888.256 24.5312 889.398 24.625 890.652 24.625C891.953 24.625 893.119 24.5254 894.15 24.3262C895.182 24.1152 896.055 23.8398 896.77 23.5C897.496 23.1602 898.053 22.7676 898.439 22.3223C898.826 21.8652 899.02 21.3906 899.02 20.8984V19.1406H903.66V22.2344C903.66 22.8555 903.502 23.4473 903.186 24.0098C902.869 24.5605 902.424 25.0703 901.85 25.5391C901.287 26.0078 900.607 26.4297 899.811 26.8047C899.025 27.168 898.146 27.4844 897.174 27.7539C896.213 28.0117 895.182 28.2109 894.08 28.3516C892.979 28.4922 891.836 28.5625 890.652 28.5625C889.469 28.5625 888.326 28.4922 887.225 28.3516C886.123 28.2109 885.086 28.0117 884.113 27.7539C883.152 27.4844 882.273 27.168 881.477 26.8047C880.691 26.4297 880.012 26.0078 879.438 25.5391C878.875 25.0703 878.436 24.5605 878.119 24.0098C877.803 23.4473 877.645 22.8555 877.645 22.2344V7.11719C877.645 6.49609 877.803 5.9043 878.119 5.3418C878.436 4.7793 878.875 4.26367 879.438 3.79492C880.012 3.32617 880.691 2.9043 881.477 2.5293C882.273 2.1543 883.152 1.83789 884.113 1.58008C885.086 1.31055 886.123 1.10547 887.225 0.964844C888.326 0.824219 889.469 0.753906 890.652 0.753906ZM914.805 11.4062C915.262 11.5 915.725 11.5645 916.193 11.5996C916.662 11.6348 917.137 11.6523 917.617 11.6523C919.164 11.6523 920.43 11.3887 921.414 10.8613C922.398 10.334 923.172 9.60742 923.734 8.68164C924.297 7.75586 924.689 6.66602 924.912 5.41211C925.135 4.14648 925.258 2.78125 925.281 1.31641C926.289 1.36328 927.238 1.43359 928.129 1.52734C929.02 1.60938 929.811 1.69727 930.502 1.79102C931.299 1.89648 932.043 2.00781 932.734 2.125V6.58984C932.559 6.53125 932.33 6.4668 932.049 6.39648C931.779 6.32617 931.475 6.25586 931.135 6.18555C930.807 6.10352 930.449 6.02734 930.062 5.95703C929.688 5.875 929.301 5.79297 928.902 5.71094C928.82 6.46094 928.697 7.20508 928.533 7.94336C928.381 8.66992 928.164 9.36719 927.883 10.0352C927.602 10.7031 927.244 11.3184 926.811 11.8809C926.389 12.4316 925.867 12.9062 925.246 13.3047C926.066 13.5742 926.793 13.9727 927.426 14.5C928.059 15.0273 928.604 15.6367 929.061 16.3281C929.529 17.0078 929.916 17.752 930.221 18.5605C930.537 19.3691 930.789 20.1895 930.977 21.0215C931.164 21.8535 931.299 22.6855 931.381 23.5176C931.463 24.3379 931.504 25.1055 931.504 25.8203C931.504 26.207 931.492 26.582 931.469 26.9453C931.457 27.2969 931.434 27.625 931.398 27.9297H927.25C927.309 27.5078 927.344 27.1035 927.355 26.7168C927.379 26.3184 927.391 25.9258 927.391 25.5391C927.391 24.0156 927.209 22.6445 926.846 21.4258C926.482 20.207 925.973 19.1758 925.316 18.332C924.66 17.4766 923.875 16.8262 922.961 16.3809C922.059 15.9238 921.062 15.6953 919.973 15.6953C919.234 15.6953 918.607 15.7129 918.092 15.748C917.576 15.7832 917.125 15.8359 916.738 15.9062C916.352 15.9648 916.006 16.0352 915.701 16.1172C915.408 16.1992 915.109 16.2812 914.805 16.3633V27.9297H910.48V5.85156C909.812 5.99219 909.191 6.12695 908.617 6.25586C908.055 6.37305 907.633 6.48438 907.352 6.58984V2.125C908.02 2.00781 908.758 1.89648 909.566 1.79102C910.246 1.69727 911.037 1.60938 911.939 1.52734C912.842 1.43359 913.797 1.36328 914.805 1.31641V11.4062Z" fill="#FFED50"/>
<path d="M11.6406 1.21094C13.4453 1.21094 15.1445 1.36914 16.7383 1.68555C18.332 2.00195 19.7266 2.44141 20.9219 3.00391C22.1172 3.56641 23.0605 4.24609 23.752 5.04297C24.4434 5.82812 24.7891 6.69531 24.7891 7.64453V21.6367C24.7891 22.5859 24.4434 23.459 23.752 24.2559C23.0605 25.041 22.1172 25.7148 20.9219 26.2773C19.7266 26.8398 18.332 27.2793 16.7383 27.5957C15.1445 27.9121 13.4453 28.0703 11.6406 28.0703C10.6328 28.0703 9.60156 28.0352 8.54688 27.9648C7.49219 27.8828 6.4668 27.7832 5.4707 27.666C4.48633 27.5371 3.56055 27.3906 2.69336 27.2266C1.82617 27.0625 1.08203 26.8867 0.460938 26.6992V2.58203C1.08203 2.39453 1.82617 2.21875 2.69336 2.05469C3.56055 1.89063 4.48633 1.75 5.4707 1.63281C6.4668 1.50391 7.49219 1.4043 8.54688 1.33398C9.60156 1.25195 10.6328 1.21094 11.6406 1.21094ZM11.7109 5.18359C10.6445 5.18359 9.71875 5.21875 8.93359 5.28906C8.14844 5.34766 7.47461 5.42969 6.91211 5.53516C6.34961 5.62891 5.88086 5.73438 5.50586 5.85156C5.14258 5.95703 4.84375 6.05078 4.60938 6.13281V23.1484C4.84375 23.2422 5.14258 23.3418 5.50586 23.4473C5.88086 23.5527 6.34961 23.6582 6.91211 23.7637C7.47461 23.8574 8.14844 23.9395 8.93359 24.0098C9.71875 24.0684 10.6445 24.0977 11.7109 24.0977C13.0234 24.0977 14.2012 23.9922 15.2441 23.7812C16.2988 23.5703 17.1836 23.2891 17.8984 22.9375C18.625 22.5859 19.1816 22.1816 19.5684 21.7246C19.9551 21.2559 20.1484 20.7695 20.1484 20.2656V9.01562C20.1484 8.51172 19.9551 8.03125 19.5684 7.57422C19.1816 7.10547 18.625 6.69531 17.8984 6.34375C17.1836 5.99219 16.2988 5.71094 15.2441 5.5C14.2012 5.28906 13.0234 5.18359 11.7109 5.18359ZM36.2852 1.49219C36.2266 2.01953 36.1738 2.58203 36.127 3.17969C36.0918 3.77734 36.0742 4.375 36.0742 4.97266C36.0742 5.98047 36.2031 6.87109 36.4609 7.64453C36.7305 8.40625 37.0938 9.0918 37.5508 9.70117C38.0078 10.2988 38.5352 10.8379 39.1328 11.3184C39.7422 11.7871 40.3867 12.2266 41.0664 12.6367C41.7461 12.2266 42.3906 11.7871 43 11.3184C43.6094 10.8379 44.1426 10.2988 44.5996 9.70117C45.0684 9.0918 45.4375 8.40625 45.707 7.64453C45.9883 6.87109 46.1289 5.98047 46.1289 4.97266C46.1289 4.375 46.1055 3.77734 46.0586 3.17969C46.0117 2.58203 45.9531 2.01953 45.8828 1.49219C46.8438 1.52734 47.7578 1.5918 48.625 1.68555C49.5039 1.76758 50.2773 1.85547 50.9453 1.94922C51.7305 2.06641 52.457 2.18359 53.125 2.30078V6.76562C52.9609 6.71875 52.7441 6.66016 52.4746 6.58984C52.2051 6.51953 51.9238 6.44922 51.6309 6.37891C51.3379 6.30859 51.0508 6.24414 50.7695 6.18555C50.5 6.12695 50.2773 6.08594 50.1016 6.0625C50.0898 7.21094 49.9434 8.23047 49.6621 9.12109C49.3809 10.0117 48.9941 10.8086 48.502 11.5117C48.0215 12.2148 47.459 12.8359 46.8145 13.375C46.1699 13.9141 45.4844 14.4062 44.7578 14.8516L43.1758 15.7656V24.0977C44.7109 24.0508 46.0879 23.9512 47.3066 23.7988C48.5254 23.6465 49.5684 23.4883 50.4355 23.3242C51.4434 23.125 52.3398 22.9141 53.125 22.6914V27.1562C50.9336 27.5312 48.8301 27.7832 46.8145 27.9121C44.7988 28.041 42.9062 28.1055 41.1367 28.1055C39.332 28.1055 37.416 28.041 35.3887 27.9121C33.373 27.7832 31.2578 27.5312 29.043 27.1562V22.6914C29.8281 22.9141 30.7246 23.125 31.7324 23.3242C32.5996 23.4883 33.6426 23.6465 34.8613 23.7988C36.0801 23.9512 37.457 24.0508 38.9922 24.0977V15.7656L37.4453 14.8516C36.707 14.4062 36.0156 13.9141 35.3711 13.375C34.7266 12.8359 34.1641 12.2148 33.6836 11.5117C33.2031 10.8086 32.8223 10.0117 32.541 9.12109C32.2598 8.23047 32.1133 7.21094 32.1016 6.0625C31.9258 6.08594 31.6973 6.12695 31.416 6.18555C31.1465 6.24414 30.8594 6.30859 30.5547 6.37891C30.2617 6.44922 29.9746 6.51953 29.6934 6.58984C29.4238 6.66016 29.207 6.71875 29.043 6.76562V2.30078C29.7109 2.18359 30.4375 2.06641 31.2227 1.94922C31.8906 1.85547 32.6582 1.76758 33.5254 1.68555C34.4043 1.5918 35.3242 1.52734 36.2852 1.49219ZM77.7344 21.0742V1.49219C78.7422 1.52734 79.6855 1.5918 80.5645 1.68555C81.4551 1.76758 82.2402 1.85547 82.9199 1.94922C83.7051 2.06641 84.4375 2.18359 85.1172 2.30078V6.76562C84.1797 6.48438 83.1016 6.23828 81.8828 6.02734V23.7461C82.5156 23.6523 83.0957 23.541 83.623 23.4121C84.1621 23.2832 84.6602 23.1484 85.1172 23.0078V27.1562C84.2734 27.2969 83.5059 27.4141 82.8145 27.5078C82.123 27.6016 81.4785 27.6777 80.8809 27.7363C80.2949 27.7949 79.7441 27.8418 79.2285 27.877C78.7129 27.9121 78.2148 27.9414 77.7344 27.9648L65.957 8.41797V27.9648C65.4766 27.9414 64.9785 27.9121 64.4629 27.877C63.9473 27.8418 63.3965 27.7949 62.8105 27.7363C62.2246 27.6777 61.5859 27.6016 60.8945 27.5078C60.2031 27.4141 59.4414 27.2969 58.6094 27.1562V22.6914C59.4766 22.9727 60.5547 23.2188 61.8438 23.4297V5.67578C61.2227 5.78125 60.6426 5.89844 60.1035 6.02734C59.5645 6.15625 59.0664 6.28516 58.6094 6.41406V2.30078C59.2656 2.18359 59.9863 2.06641 60.7715 1.94922C61.4395 1.85547 62.2188 1.76758 63.1094 1.68555C64 1.5918 64.9492 1.52734 65.957 1.49219L77.7344 21.0742ZM103.082 0.542969C103.809 0.542969 104.547 0.619141 105.297 0.771484C106.047 0.912109 106.715 1.10547 107.301 1.35156C108.332 3.15625 109.27 4.99609 110.113 6.87109C110.969 8.73438 111.73 10.6562 112.398 12.6367C112.855 12.6953 113.318 12.7598 113.787 12.8301C114.256 12.8887 114.73 12.9531 115.211 13.0234V17.5234L113.699 17.1016C114.121 18.8477 114.479 20.6289 114.771 22.4453C115.064 24.2617 115.281 26.1133 115.422 28H111.238C111.062 25.9844 110.77 23.9922 110.359 22.0234C109.949 20.0547 109.48 18.168 108.953 16.3633C107.816 16.2695 106.732 16.1992 105.701 16.1523C104.682 16.1055 103.809 16.082 103.082 16.082C102.109 16.082 101.143 16.0996 100.182 16.1348C99.2207 16.1699 98.2539 16.2344 97.2812 16.3281C96.7539 18.1328 96.2793 20.0195 95.8574 21.9883C95.4473 23.957 95.1602 25.9609 94.9961 28H90.8125C90.9414 26.1133 91.1465 24.2676 91.4277 22.4629C91.7207 20.6582 92.0781 18.8828 92.5 17.1367L91.1289 17.5234V13.0234L93.8359 12.6367C94.4922 10.6562 95.2422 8.73438 96.0859 6.87109C96.9414 4.99609 97.8906 3.15625 98.9336 1.35156C99.5195 1.10547 100.182 0.912109 100.92 0.771484C101.658 0.619141 102.379 0.542969 103.082 0.542969ZM103.082 12.1094C103.785 12.1094 104.512 12.1211 105.262 12.1445C106.012 12.1562 106.785 12.1914 107.582 12.25C106.984 10.6211 106.393 9.20898 105.807 8.01367C105.232 6.80664 104.734 5.875 104.312 5.21875C104.102 5.125 103.902 5.06055 103.715 5.02539C103.527 4.99023 103.316 4.97266 103.082 4.97266C102.707 4.97266 102.32 5.05469 101.922 5.21875C101.5 5.875 100.996 6.80664 100.41 8.01367C99.8242 9.20898 99.2383 10.6211 98.6523 12.25C99.4258 12.1914 100.182 12.1562 100.92 12.1445C101.67 12.1211 102.391 12.1094 103.082 12.1094ZM137.359 15.4492L146.535 1.38672C147.531 1.44531 148.475 1.52148 149.365 1.61523C150.256 1.69727 151.035 1.78516 151.703 1.87891C152.488 1.98438 153.215 2.08984 153.883 2.19531V6.23828L150.613 5.5V23.6406L153.883 22.9023V27.2617C152.641 27.5078 151.416 27.6895 150.209 27.8066C149.002 27.9238 147.777 28.0117 146.535 28.0703V8.76953L137.359 23.0078L128.043 8.73438V28.0703C127.047 28.0117 126.104 27.9414 125.213 27.8594C124.322 27.7773 123.543 27.6895 122.875 27.5957C122.09 27.4902 121.363 27.3789 120.695 27.2617V22.9023L123.965 23.6406V5.46484L120.695 6.20312V2.16016C121.363 2.05469 122.09 1.94922 122.875 1.84375C123.543 1.75 124.322 1.66211 125.213 1.58008C126.104 1.48633 127.047 1.41016 128.043 1.35156L137.359 15.4492ZM171.461 1.24609C173.277 1.24609 175.193 1.31055 177.209 1.43945C179.225 1.56836 181.328 1.82031 183.52 2.19531V6.66016C182.734 6.4375 181.838 6.22656 180.83 6.02734C179.963 5.86328 178.92 5.70508 177.701 5.55273C176.482 5.40039 175.105 5.30078 173.57 5.25391V23.9922C175.105 23.9453 176.482 23.8457 177.701 23.6934C178.92 23.541 179.963 23.3828 180.83 23.2188C181.838 23.0195 182.734 22.8086 183.52 22.5859V27.0508C181.328 27.4258 179.225 27.6777 177.209 27.8066C175.193 27.9355 173.277 28 171.461 28C169.691 28 167.799 27.9355 165.783 27.8066C163.768 27.6777 161.652 27.4258 159.438 27.0508V22.5859C160.223 22.8086 161.119 23.0195 162.127 23.2188C162.994 23.3828 164.037 23.541 165.256 23.6934C166.475 23.8457 167.852 23.9453 169.387 23.9922V5.25391C167.852 5.30078 166.475 5.40039 165.256 5.55273C164.037 5.70508 162.994 5.86328 162.127 6.02734C161.119 6.22656 160.223 6.4375 159.438 6.66016V2.19531C161.652 1.82031 163.768 1.56836 165.783 1.43945C167.799 1.31055 169.691 1.24609 171.461 1.24609ZM200.922 0.753906C202.691 0.753906 204.367 0.912109 205.949 1.22852C207.531 1.5332 208.908 1.9668 210.08 2.5293C211.264 3.0918 212.201 3.76562 212.893 4.55078C213.584 5.32422 213.93 6.17969 213.93 7.11719V10.2109H209.289V8.48828C209.289 7.98438 209.096 7.50391 208.709 7.04688C208.322 6.57812 207.766 6.17383 207.039 5.83398C206.324 5.48242 205.451 5.20703 204.42 5.00781C203.389 4.79688 202.223 4.69141 200.922 4.69141C199.668 4.69141 198.525 4.79102 197.494 4.99023C196.463 5.17773 195.578 5.44141 194.84 5.78125C194.102 6.12109 193.527 6.52539 193.117 6.99414C192.719 7.45117 192.52 7.94922 192.52 8.48828V20.8984C192.52 21.4141 192.719 21.9004 193.117 22.3574C193.527 22.8145 194.102 23.2129 194.84 23.5527C195.578 23.8809 196.463 24.1445 197.494 24.3438C198.525 24.5312 199.668 24.625 200.922 24.625C202.223 24.625 203.389 24.5254 204.42 24.3262C205.451 24.1152 206.324 23.8398 207.039 23.5C207.766 23.1602 208.322 22.7676 208.709 22.3223C209.096 21.8652 209.289 21.3906 209.289 20.8984V19.1406H213.93V22.2344C213.93 22.8555 213.771 23.4473 213.455 24.0098C213.139 24.5605 212.693 25.0703 212.119 25.5391C211.557 26.0078 210.877 26.4297 210.08 26.8047C209.295 27.168 208.416 27.4844 207.443 27.7539C206.482 28.0117 205.451 28.2109 204.35 28.3516C203.248 28.4922 202.105 28.5625 200.922 28.5625C199.738 28.5625 198.596 28.4922 197.494 28.3516C196.393 28.2109 195.355 28.0117 194.383 27.7539C193.422 27.4844 192.543 27.168 191.746 26.8047C190.961 26.4297 190.281 26.0078 189.707 25.5391C189.145 25.0703 188.705 24.5605 188.389 24.0098C188.072 23.4473 187.914 22.8555 187.914 22.2344V7.11719C187.914 6.49609 188.072 5.9043 188.389 5.3418C188.705 4.7793 189.145 4.26367 189.707 3.79492C190.281 3.32617 190.961 2.9043 191.746 2.5293C192.543 2.1543 193.422 1.83789 194.383 1.58008C195.355 1.31055 196.393 1.10547 197.494 0.964844C198.596 0.824219 199.738 0.753906 200.922 0.753906ZM243.637 1.14062C244.809 1.14062 246.004 1.19922 247.223 1.31641C248.453 1.42188 249.648 1.61523 250.809 1.89648C251.969 2.16602 253.059 2.54688 254.078 3.03906C255.098 3.51953 255.988 4.13477 256.75 4.88477C257.523 5.62305 258.133 6.51367 258.578 7.55664C259.023 8.58789 259.246 9.80078 259.246 11.1953C259.246 12.6133 259.053 13.8613 258.666 14.9395C258.291 16.0176 257.758 16.9551 257.066 17.752C256.387 18.5488 255.572 19.2168 254.623 19.7559C253.686 20.2832 252.654 20.7109 251.529 21.0391C250.404 21.3555 249.209 21.584 247.943 21.7246C246.678 21.8535 245.383 21.918 244.059 21.918C243.227 21.918 242.4 21.8945 241.58 21.8477C240.76 21.8008 239.934 21.7422 239.102 21.6719V27.9648H234.742V2.16016C235 2.07812 235.41 1.97852 235.973 1.86133C236.547 1.74414 237.221 1.63281 237.994 1.52734C238.779 1.42188 239.652 1.33398 240.613 1.26367C241.574 1.18164 242.582 1.14062 243.637 1.14062ZM244.902 5.00781C244.129 5.00781 243.391 5.04297 242.688 5.11328C241.984 5.17188 241.369 5.24219 240.842 5.32422C240.209 5.41797 239.629 5.52344 239.102 5.64062V17.6641C239.477 17.7461 239.893 17.8164 240.35 17.875C240.736 17.9336 241.188 17.9863 241.703 18.0332C242.219 18.0684 242.77 18.0859 243.355 18.0859C244.117 18.0859 244.92 18.0684 245.764 18.0332C246.619 17.9863 247.463 17.8867 248.295 17.7344C249.139 17.582 249.936 17.3594 250.686 17.0664C251.447 16.7617 252.115 16.3633 252.689 15.8711C253.275 15.3672 253.738 14.7461 254.078 14.0078C254.43 13.2695 254.605 12.3789 254.605 11.3359C254.605 10.4688 254.465 9.70703 254.184 9.05078C253.902 8.39453 253.521 7.83203 253.041 7.36328C252.561 6.89453 251.998 6.50781 251.354 6.20312C250.721 5.89844 250.041 5.6582 249.314 5.48242C248.6 5.30664 247.861 5.18359 247.1 5.11328C246.35 5.04297 245.617 5.00781 244.902 5.00781ZM271.832 1.14062C273.004 1.14062 274.199 1.19922 275.418 1.31641C276.648 1.42188 277.844 1.61523 279.004 1.89648C280.164 2.16602 281.254 2.54688 282.273 3.03906C283.293 3.51953 284.184 4.13477 284.945 4.88477C285.719 5.62305 286.328 6.51367 286.773 7.55664C287.219 8.58789 287.441 9.80078 287.441 11.1953C287.441 13.1172 287.096 14.7402 286.404 16.0645C285.713 17.377 284.77 18.4375 283.574 19.2461C284.078 20.0195 284.512 20.8281 284.875 21.6719C285.238 22.5156 285.531 23.3359 285.754 24.1328C285.988 24.918 286.158 25.6504 286.264 26.3301C286.369 27.0098 286.422 27.5781 286.422 28.0352H281.922C281.922 27.3203 281.863 26.6465 281.746 26.0137C281.629 25.3691 281.465 24.7598 281.254 24.1855C281.043 23.5996 280.797 23.0488 280.516 22.5332C280.246 22.0176 279.953 21.5195 279.637 21.0391C278.523 21.3555 277.346 21.584 276.104 21.7246C274.861 21.8535 273.566 21.918 272.219 21.918C271.41 21.918 270.59 21.8945 269.758 21.8477C268.926 21.8008 268.105 21.7422 267.297 21.6719V27.9648H262.938V2.16016C263.195 2.07812 263.605 1.97852 264.168 1.86133C264.742 1.74414 265.416 1.63281 266.189 1.52734C266.975 1.42188 267.848 1.33398 268.809 1.26367C269.77 1.18164 270.777 1.14062 271.832 1.14062ZM273.098 5.00781C272.324 5.00781 271.586 5.04297 270.883 5.11328C270.18 5.17188 269.564 5.24219 269.037 5.32422C268.404 5.41797 267.824 5.52344 267.297 5.64062V17.6641C267.672 17.7461 268.088 17.8164 268.545 17.875C268.932 17.9336 269.383 17.9863 269.898 18.0332C270.414 18.0684 270.965 18.0859 271.551 18.0859C272.312 18.0859 273.115 18.0684 273.959 18.0332C274.814 17.9863 275.658 17.8867 276.49 17.7344C277.334 17.582 278.131 17.3594 278.881 17.0664C279.643 16.7617 280.311 16.3633 280.885 15.8711C281.471 15.3672 281.934 14.7461 282.273 14.0078C282.625 13.2695 282.801 12.3789 282.801 11.3359C282.801 10.4688 282.66 9.70703 282.379 9.05078C282.098 8.39453 281.717 7.83203 281.236 7.36328C280.756 6.89453 280.193 6.50781 279.549 6.20312C278.916 5.89844 278.236 5.6582 277.51 5.48242C276.795 5.30664 276.057 5.18359 275.295 5.11328C274.545 5.04297 273.812 5.00781 273.098 5.00781ZM304.176 0.789062C305.348 0.789062 306.484 0.859375 307.586 1C308.688 1.14062 309.719 1.3457 310.68 1.61523C311.641 1.87305 312.52 2.18945 313.316 2.56445C314.113 2.92773 314.793 3.34375 315.355 3.8125C315.918 4.28125 316.357 4.79688 316.674 5.35938C316.99 5.91016 317.148 6.49609 317.148 7.11719V22.1992C317.148 22.8203 316.99 23.4121 316.674 23.9746C316.357 24.5254 315.918 25.0352 315.355 25.5039C314.793 25.9727 314.113 26.3945 313.316 26.7695C312.52 27.1328 311.641 27.4492 310.68 27.7188C309.719 27.9766 308.688 28.1758 307.586 28.3164C306.484 28.457 305.348 28.5273 304.176 28.5273C303.004 28.5273 301.867 28.457 300.766 28.3164C299.676 28.1758 298.65 27.9766 297.689 27.7188C296.74 27.4492 295.867 27.1328 295.07 26.7695C294.273 26.3945 293.588 25.9727 293.014 25.5039C292.451 25.0352 292.012 24.5254 291.695 23.9746C291.391 23.4121 291.238 22.8203 291.238 22.1992V7.11719C291.238 6.49609 291.391 5.91016 291.695 5.35938C292.012 4.79688 292.451 4.28125 293.014 3.8125C293.588 3.34375 294.273 2.92773 295.07 2.56445C295.867 2.18945 296.74 1.87305 297.689 1.61523C298.65 1.3457 299.676 1.14062 300.766 1C301.867 0.859375 303.004 0.789062 304.176 0.789062ZM312.543 8.45312C312.543 7.94922 312.35 7.47461 311.963 7.0293C311.576 6.57227 311.02 6.17383 310.293 5.83398C309.578 5.48242 308.705 5.20703 307.674 5.00781C306.643 4.79688 305.477 4.69141 304.176 4.69141C302.922 4.69141 301.785 4.79102 300.766 4.99023C299.746 5.17773 298.867 5.44141 298.129 5.78125C297.402 6.12109 296.84 6.51953 296.441 6.97656C296.043 7.43359 295.844 7.92578 295.844 8.45312V20.8633C295.844 21.3789 296.043 21.8652 296.441 22.3223C296.84 22.7793 297.402 23.1777 298.129 23.5176C298.867 23.8574 299.746 24.127 300.766 24.3262C301.785 24.5254 302.922 24.625 304.176 24.625C305.477 24.625 306.643 24.5254 307.674 24.3262C308.705 24.1152 309.578 23.834 310.293 23.4824C311.02 23.1309 311.576 22.7324 311.963 22.2871C312.35 21.8301 312.543 21.3555 312.543 20.8633V8.45312ZM334.234 1.21094C336.004 1.21094 337.674 1.36914 339.244 1.68555C340.814 2.00195 342.186 2.44141 343.357 3.00391C344.541 3.56641 345.479 4.24023 346.17 5.02539C346.861 5.81055 347.207 6.67188 347.207 7.60938V10.457H342.637V8.94531C342.637 8.44141 342.443 7.96094 342.057 7.50391C341.67 7.04688 341.113 6.64258 340.387 6.29102C339.672 5.93945 338.793 5.66406 337.75 5.46484C336.719 5.25391 335.547 5.14844 334.234 5.14844C332.969 5.14844 331.82 5.24805 330.789 5.44727C329.758 5.64648 328.873 5.91602 328.135 6.25586C327.396 6.5957 326.828 7 326.43 7.46875C326.031 7.92578 325.832 8.41797 325.832 8.94531V20.3359C325.832 20.8516 326.031 21.3438 326.43 21.8125C326.828 22.2695 327.396 22.6738 328.135 23.0254C328.873 23.3652 329.758 23.6348 330.789 23.834C331.82 24.0332 332.969 24.1328 334.234 24.1328C335.547 24.1328 336.719 24.0332 337.75 23.834C338.793 23.623 339.672 23.3418 340.387 22.9902C341.113 22.6387 341.67 22.2344 342.057 21.7773C342.443 21.3203 342.637 20.8398 342.637 20.3359V17.8047C341.547 17.8047 340.568 17.834 339.701 17.8926C338.846 17.9512 338.113 18.0098 337.504 18.0684C336.789 18.1504 336.156 18.2383 335.605 18.332L336.062 14.0781C337.855 13.9375 339.543 13.8672 341.125 13.8672C343.246 13.8672 345.273 13.9727 347.207 14.1836V21.6719C347.207 22.6094 346.861 23.4707 346.17 24.2559C345.479 25.0293 344.541 25.6973 343.357 26.2598C342.186 26.8223 340.814 27.2617 339.244 27.5781C337.674 27.8828 336.004 28.0352 334.234 28.0352C332.465 28.0352 330.795 27.8828 329.225 27.5781C327.654 27.2617 326.277 26.8223 325.094 26.2598C323.922 25.6973 322.99 25.0293 322.299 24.2559C321.607 23.4707 321.262 22.6094 321.262 21.6719V7.60938C321.262 6.67188 321.607 5.81055 322.299 5.02539C322.99 4.24023 323.922 3.56641 325.094 3.00391C326.277 2.44141 327.654 2.00195 329.225 1.68555C330.795 1.36914 332.465 1.21094 334.234 1.21094ZM361.867 1.14062C363.039 1.14062 364.234 1.19922 365.453 1.31641C366.684 1.42188 367.879 1.61523 369.039 1.89648C370.199 2.16602 371.289 2.54688 372.309 3.03906C373.328 3.51953 374.219 4.13477 374.98 4.88477C375.754 5.62305 376.363 6.51367 376.809 7.55664C377.254 8.58789 377.477 9.80078 377.477 11.1953C377.477 13.1172 377.131 14.7402 376.439 16.0645C375.748 17.377 374.805 18.4375 373.609 19.2461C374.113 20.0195 374.547 20.8281 374.91 21.6719C375.273 22.5156 375.566 23.3359 375.789 24.1328C376.023 24.918 376.193 25.6504 376.299 26.3301C376.404 27.0098 376.457 27.5781 376.457 28.0352H371.957C371.957 27.3203 371.898 26.6465 371.781 26.0137C371.664 25.3691 371.5 24.7598 371.289 24.1855C371.078 23.5996 370.832 23.0488 370.551 22.5332C370.281 22.0176 369.988 21.5195 369.672 21.0391C368.559 21.3555 367.381 21.584 366.139 21.7246C364.896 21.8535 363.602 21.918 362.254 21.918C361.445 21.918 360.625 21.8945 359.793 21.8477C358.961 21.8008 358.141 21.7422 357.332 21.6719V27.9648H352.973V2.16016C353.23 2.07812 353.641 1.97852 354.203 1.86133C354.777 1.74414 355.451 1.63281 356.225 1.52734C357.01 1.42188 357.883 1.33398 358.844 1.26367C359.805 1.18164 360.812 1.14062 361.867 1.14062ZM363.133 5.00781C362.359 5.00781 361.621 5.04297 360.918 5.11328C360.215 5.17188 359.6 5.24219 359.072 5.32422C358.439 5.41797 357.859 5.52344 357.332 5.64062V17.6641C357.707 17.7461 358.123 17.8164 358.58 17.875C358.967 17.9336 359.418 17.9863 359.934 18.0332C360.449 18.0684 361 18.0859 361.586 18.0859C362.348 18.0859 363.15 18.0684 363.994 18.0332C364.85 17.9863 365.693 17.8867 366.525 17.7344C367.369 17.582 368.166 17.3594 368.916 17.0664C369.678 16.7617 370.346 16.3633 370.92 15.8711C371.506 15.3672 371.969 14.7461 372.309 14.0078C372.66 13.2695 372.836 12.3789 372.836 11.3359C372.836 10.4688 372.695 9.70703 372.414 9.05078C372.133 8.39453 371.752 7.83203 371.271 7.36328C370.791 6.89453 370.229 6.50781 369.584 6.20312C368.951 5.89844 368.271 5.6582 367.545 5.48242C366.83 5.30664 366.092 5.18359 365.33 5.11328C364.58 5.04297 363.848 5.00781 363.133 5.00781ZM393.895 0.542969C394.621 0.542969 395.359 0.619141 396.109 0.771484C396.859 0.912109 397.527 1.10547 398.113 1.35156C399.145 3.15625 400.082 4.99609 400.926 6.87109C401.781 8.73438 402.543 10.6562 403.211 12.6367C403.668 12.6953 404.131 12.7598 404.6 12.8301C405.068 12.8887 405.543 12.9531 406.023 13.0234V17.5234L404.512 17.1016C404.934 18.8477 405.291 20.6289 405.584 22.4453C405.877 24.2617 406.094 26.1133 406.234 28H402.051C401.875 25.9844 401.582 23.9922 401.172 22.0234C400.762 20.0547 400.293 18.168 399.766 16.3633C398.629 16.2695 397.545 16.1992 396.514 16.1523C395.494 16.1055 394.621 16.082 393.895 16.082C392.922 16.082 391.955 16.0996 390.994 16.1348C390.033 16.1699 389.066 16.2344 388.094 16.3281C387.566 18.1328 387.092 20.0195 386.67 21.9883C386.26 23.957 385.973 25.9609 385.809 28H381.625C381.754 26.1133 381.959 24.2676 382.24 22.4629C382.533 20.6582 382.891 18.8828 383.312 17.1367L381.941 17.5234V13.0234L384.648 12.6367C385.305 10.6562 386.055 8.73438 386.898 6.87109C387.754 4.99609 388.703 3.15625 389.746 1.35156C390.332 1.10547 390.994 0.912109 391.732 0.771484C392.471 0.619141 393.191 0.542969 393.895 0.542969ZM393.895 12.1094C394.598 12.1094 395.324 12.1211 396.074 12.1445C396.824 12.1562 397.598 12.1914 398.395 12.25C397.797 10.6211 397.205 9.20898 396.619 8.01367C396.045 6.80664 395.547 5.875 395.125 5.21875C394.914 5.125 394.715 5.06055 394.527 5.02539C394.34 4.99023 394.129 4.97266 393.895 4.97266C393.52 4.97266 393.133 5.05469 392.734 5.21875C392.312 5.875 391.809 6.80664 391.223 8.01367C390.637 9.20898 390.051 10.6211 389.465 12.25C390.238 12.1914 390.994 12.1562 391.732 12.1445C392.482 12.1211 393.203 12.1094 393.895 12.1094ZM428.172 15.4492L437.348 1.38672C438.344 1.44531 439.287 1.52148 440.178 1.61523C441.068 1.69727 441.848 1.78516 442.516 1.87891C443.301 1.98438 444.027 2.08984 444.695 2.19531V6.23828L441.426 5.5V23.6406L444.695 22.9023V27.2617C443.453 27.5078 442.229 27.6895 441.021 27.8066C439.814 27.9238 438.59 28.0117 437.348 28.0703V8.76953L428.172 23.0078L418.855 8.73438V28.0703C417.859 28.0117 416.916 27.9414 416.025 27.8594C415.135 27.7773 414.355 27.6895 413.688 27.5957C412.902 27.4902 412.176 27.3789 411.508 27.2617V22.9023L414.777 23.6406V5.46484L411.508 6.20312V2.16016C412.176 2.05469 412.902 1.94922 413.688 1.84375C414.355 1.75 415.135 1.66211 416.025 1.58008C416.916 1.48633 417.859 1.41016 418.855 1.35156L428.172 15.4492ZM467.301 15.4492L476.477 1.38672C477.473 1.44531 478.416 1.52148 479.307 1.61523C480.197 1.69727 480.977 1.78516 481.645 1.87891C482.43 1.98438 483.156 2.08984 483.824 2.19531V6.23828L480.555 5.5V23.6406L483.824 22.9023V27.2617C482.582 27.5078 481.357 27.6895 480.15 27.8066C478.943 27.9238 477.719 28.0117 476.477 28.0703V8.76953L467.301 23.0078L457.984 8.73438V28.0703C456.988 28.0117 456.045 27.9414 455.154 27.8594C454.264 27.7773 453.484 27.6895 452.816 27.5957C452.031 27.4902 451.305 27.3789 450.637 27.2617V22.9023L453.906 23.6406V5.46484L450.637 6.20312V2.16016C451.305 2.05469 452.031 1.94922 452.816 1.84375C453.484 1.75 454.264 1.66211 455.154 1.58008C456.045 1.48633 456.988 1.41016 457.984 1.35156L467.301 15.4492ZM501.402 1.24609C503.219 1.24609 505.135 1.31055 507.15 1.43945C509.166 1.56836 511.27 1.82031 513.461 2.19531V6.66016C512.676 6.4375 511.779 6.22656 510.771 6.02734C509.904 5.86328 508.861 5.70508 507.643 5.55273C506.424 5.40039 505.047 5.30078 503.512 5.25391V23.9922C505.047 23.9453 506.424 23.8457 507.643 23.6934C508.861 23.541 509.904 23.3828 510.771 23.2188C511.779 23.0195 512.676 22.8086 513.461 22.5859V27.0508C511.27 27.4258 509.166 27.6777 507.15 27.8066C505.135 27.9355 503.219 28 501.402 28C499.633 28 497.74 27.9355 495.725 27.8066C493.709 27.6777 491.594 27.4258 489.379 27.0508V22.5859C490.164 22.8086 491.061 23.0195 492.068 23.2188C492.936 23.3828 493.979 23.541 495.197 23.6934C496.416 23.8457 497.793 23.9453 499.328 23.9922V5.25391C497.793 5.30078 496.416 5.40039 495.197 5.55273C493.979 5.70508 492.936 5.86328 492.068 6.02734C491.061 6.22656 490.164 6.4375 489.379 6.66016V2.19531C491.594 1.82031 493.709 1.56836 495.725 1.43945C497.74 1.31055 499.633 1.24609 501.402 1.24609ZM538.316 21.0742V1.49219C539.324 1.52734 540.268 1.5918 541.146 1.68555C542.037 1.76758 542.822 1.85547 543.502 1.94922C544.287 2.06641 545.02 2.18359 545.699 2.30078V6.76562C544.762 6.48438 543.684 6.23828 542.465 6.02734V23.7461C543.098 23.6523 543.678 23.541 544.205 23.4121C544.744 23.2832 545.242 23.1484 545.699 23.0078V27.1562C544.855 27.2969 544.088 27.4141 543.396 27.5078C542.705 27.6016 542.061 27.6777 541.463 27.7363C540.877 27.7949 540.326 27.8418 539.811 27.877C539.295 27.9121 538.797 27.9414 538.316 27.9648L526.539 8.41797V27.9648C526.059 27.9414 525.561 27.9121 525.045 27.877C524.529 27.8418 523.979 27.7949 523.393 27.7363C522.807 27.6777 522.168 27.6016 521.477 27.5078C520.785 27.4141 520.023 27.2969 519.191 27.1562V22.6914C520.059 22.9727 521.137 23.2188 522.426 23.4297V5.67578C521.805 5.78125 521.225 5.89844 520.686 6.02734C520.146 6.15625 519.648 6.28516 519.191 6.41406V2.30078C519.848 2.18359 520.568 2.06641 521.354 1.94922C522.021 1.85547 522.801 1.76758 523.691 1.68555C524.582 1.5918 525.531 1.52734 526.539 1.49219L538.316 21.0742ZM563.629 1.21094C565.398 1.21094 567.068 1.36914 568.639 1.68555C570.209 2.00195 571.58 2.44141 572.752 3.00391C573.936 3.56641 574.873 4.24023 575.564 5.02539C576.256 5.81055 576.602 6.67188 576.602 7.60938V10.457H572.031V8.94531C572.031 8.44141 571.838 7.96094 571.451 7.50391C571.064 7.04688 570.508 6.64258 569.781 6.29102C569.066 5.93945 568.188 5.66406 567.145 5.46484C566.113 5.25391 564.941 5.14844 563.629 5.14844C562.363 5.14844 561.215 5.24805 560.184 5.44727C559.152 5.64648 558.268 5.91602 557.529 6.25586C556.791 6.5957 556.223 7 555.824 7.46875C555.426 7.92578 555.227 8.41797 555.227 8.94531V20.3359C555.227 20.8516 555.426 21.3438 555.824 21.8125C556.223 22.2695 556.791 22.6738 557.529 23.0254C558.268 23.3652 559.152 23.6348 560.184 23.834C561.215 24.0332 562.363 24.1328 563.629 24.1328C564.941 24.1328 566.113 24.0332 567.145 23.834C568.188 23.623 569.066 23.3418 569.781 22.9902C570.508 22.6387 571.064 22.2344 571.451 21.7773C571.838 21.3203 572.031 20.8398 572.031 20.3359V17.8047C570.941 17.8047 569.963 17.834 569.096 17.8926C568.24 17.9512 567.508 18.0098 566.898 18.0684C566.184 18.1504 565.551 18.2383 565 18.332L565.457 14.0781C567.25 13.9375 568.938 13.8672 570.52 13.8672C572.641 13.8672 574.668 13.9727 576.602 14.1836V21.6719C576.602 22.6094 576.256 23.4707 575.564 24.2559C574.873 25.0293 573.936 25.6973 572.752 26.2598C571.58 26.8223 570.209 27.2617 568.639 27.5781C567.068 27.8828 565.398 28.0352 563.629 28.0352C561.859 28.0352 560.189 27.8828 558.619 27.5781C557.049 27.2617 555.672 26.8223 554.488 26.2598C553.316 25.6973 552.385 25.0293 551.693 24.2559C551.002 23.4707 550.656 22.6094 550.656 21.6719V7.60938C550.656 6.67188 551.002 5.81055 551.693 5.02539C552.385 4.24023 553.316 3.56641 554.488 3.00391C555.672 2.44141 557.049 2.00195 558.619 1.68555C560.189 1.36914 561.859 1.21094 563.629 1.21094ZM609.578 1.24609C611.383 1.24609 613.287 1.31055 615.291 1.43945C617.307 1.56836 619.422 1.82031 621.637 2.19531V6.66016C620.652 6.37891 619.656 6.15039 618.648 5.97461C617.641 5.78711 616.627 5.64062 615.607 5.53516C614.6 5.42969 613.592 5.35352 612.584 5.30664C611.576 5.25977 610.574 5.23047 609.578 5.21875C609.098 5.21875 608.564 5.23047 607.979 5.25391C607.404 5.26562 606.783 5.28906 606.115 5.32422C605.459 5.35938 604.773 5.41211 604.059 5.48242C603.344 5.55273 602.617 5.64062 601.879 5.74609V12.1445H617.242V16.4688H601.879V28H597.555V2.19531C599.746 1.82031 601.85 1.56836 603.865 1.43945C605.893 1.31055 607.797 1.24609 609.578 1.24609ZM637.281 0.789062C638.453 0.789062 639.59 0.859375 640.691 1C641.793 1.14062 642.824 1.3457 643.785 1.61523C644.746 1.87305 645.625 2.18945 646.422 2.56445C647.219 2.92773 647.898 3.34375 648.461 3.8125C649.023 4.28125 649.463 4.79688 649.779 5.35938C650.096 5.91016 650.254 6.49609 650.254 7.11719V22.1992C650.254 22.8203 650.096 23.4121 649.779 23.9746C649.463 24.5254 649.023 25.0352 648.461 25.5039C647.898 25.9727 647.219 26.3945 646.422 26.7695C645.625 27.1328 644.746 27.4492 643.785 27.7188C642.824 27.9766 641.793 28.1758 640.691 28.3164C639.59 28.457 638.453 28.5273 637.281 28.5273C636.109 28.5273 634.973 28.457 633.871 28.3164C632.781 28.1758 631.756 27.9766 630.795 27.7188C629.846 27.4492 628.973 27.1328 628.176 26.7695C627.379 26.3945 626.693 25.9727 626.119 25.5039C625.557 25.0352 625.117 24.5254 624.801 23.9746C624.496 23.4121 624.344 22.8203 624.344 22.1992V7.11719C624.344 6.49609 624.496 5.91016 624.801 5.35938C625.117 4.79688 625.557 4.28125 626.119 3.8125C626.693 3.34375 627.379 2.92773 628.176 2.56445C628.973 2.18945 629.846 1.87305 630.795 1.61523C631.756 1.3457 632.781 1.14062 633.871 1C634.973 0.859375 636.109 0.789062 637.281 0.789062ZM645.648 8.45312C645.648 7.94922 645.455 7.47461 645.068 7.0293C644.682 6.57227 644.125 6.17383 643.398 5.83398C642.684 5.48242 641.811 5.20703 640.779 5.00781C639.748 4.79688 638.582 4.69141 637.281 4.69141C636.027 4.69141 634.891 4.79102 633.871 4.99023C632.852 5.17773 631.973 5.44141 631.234 5.78125C630.508 6.12109 629.945 6.51953 629.547 6.97656C629.148 7.43359 628.949 7.92578 628.949 8.45312V20.8633C628.949 21.3789 629.148 21.8652 629.547 22.3223C629.945 22.7793 630.508 23.1777 631.234 23.5176C631.973 23.8574 632.852 24.127 633.871 24.3262C634.891 24.5254 636.027 24.625 637.281 24.625C638.582 24.625 639.748 24.5254 640.779 24.3262C641.811 24.1152 642.684 23.834 643.398 23.4824C644.125 23.1309 644.682 22.7324 645.068 22.2871C645.455 21.8301 645.648 21.3555 645.648 20.8633V8.45312ZM664.984 1.14062C666.156 1.14062 667.352 1.19922 668.57 1.31641C669.801 1.42188 670.996 1.61523 672.156 1.89648C673.316 2.16602 674.406 2.54688 675.426 3.03906C676.445 3.51953 677.336 4.13477 678.098 4.88477C678.871 5.62305 679.48 6.51367 679.926 7.55664C680.371 8.58789 680.594 9.80078 680.594 11.1953C680.594 13.1172 680.248 14.7402 679.557 16.0645C678.865 17.377 677.922 18.4375 676.727 19.2461C677.23 20.0195 677.664 20.8281 678.027 21.6719C678.391 22.5156 678.684 23.3359 678.906 24.1328C679.141 24.918 679.311 25.6504 679.416 26.3301C679.521 27.0098 679.574 27.5781 679.574 28.0352H675.074C675.074 27.3203 675.016 26.6465 674.898 26.0137C674.781 25.3691 674.617 24.7598 674.406 24.1855C674.195 23.5996 673.949 23.0488 673.668 22.5332C673.398 22.0176 673.105 21.5195 672.789 21.0391C671.676 21.3555 670.498 21.584 669.256 21.7246C668.014 21.8535 666.719 21.918 665.371 21.918C664.562 21.918 663.742 21.8945 662.91 21.8477C662.078 21.8008 661.258 21.7422 660.449 21.6719V27.9648H656.09V2.16016C656.348 2.07812 656.758 1.97852 657.32 1.86133C657.895 1.74414 658.568 1.63281 659.342 1.52734C660.127 1.42188 661 1.33398 661.961 1.26367C662.922 1.18164 663.93 1.14062 664.984 1.14062ZM666.25 5.00781C665.477 5.00781 664.738 5.04297 664.035 5.11328C663.332 5.17188 662.717 5.24219 662.189 5.32422C661.557 5.41797 660.977 5.52344 660.449 5.64062V17.6641C660.824 17.7461 661.24 17.8164 661.697 17.875C662.084 17.9336 662.535 17.9863 663.051 18.0332C663.566 18.0684 664.117 18.0859 664.703 18.0859C665.465 18.0859 666.268 18.0684 667.111 18.0332C667.967 17.9863 668.811 17.8867 669.643 17.7344C670.486 17.582 671.283 17.3594 672.033 17.0664C672.795 16.7617 673.463 16.3633 674.037 15.8711C674.623 15.3672 675.086 14.7461 675.426 14.0078C675.777 13.2695 675.953 12.3789 675.953 11.3359C675.953 10.4688 675.812 9.70703 675.531 9.05078C675.25 8.39453 674.869 7.83203 674.389 7.36328C673.908 6.89453 673.346 6.50781 672.701 6.20312C672.068 5.89844 671.389 5.6582 670.662 5.48242C669.947 5.30664 669.209 5.18359 668.447 5.11328C667.697 5.04297 666.965 5.00781 666.25 5.00781ZM707.734 11.4062C708.191 11.5 708.654 11.5645 709.123 11.5996C709.592 11.6348 710.066 11.6523 710.547 11.6523C712.094 11.6523 713.359 11.3887 714.344 10.8613C715.328 10.334 716.102 9.60742 716.664 8.68164C717.227 7.75586 717.619 6.66602 717.842 5.41211C718.064 4.14648 718.188 2.78125 718.211 1.31641C719.219 1.36328 720.168 1.43359 721.059 1.52734C721.949 1.60938 722.74 1.69727 723.432 1.79102C724.229 1.89648 724.973 2.00781 725.664 2.125V6.58984C725.488 6.53125 725.26 6.4668 724.979 6.39648C724.709 6.32617 724.404 6.25586 724.064 6.18555C723.736 6.10352 723.379 6.02734 722.992 5.95703C722.617 5.875 722.23 5.79297 721.832 5.71094C721.75 6.46094 721.627 7.20508 721.463 7.94336C721.311 8.66992 721.094 9.36719 720.812 10.0352C720.531 10.7031 720.174 11.3184 719.74 11.8809C719.318 12.4316 718.797 12.9062 718.176 13.3047C718.996 13.5742 719.723 13.9727 720.355 14.5C720.988 15.0273 721.533 15.6367 721.99 16.3281C722.459 17.0078 722.846 17.752 723.15 18.5605C723.467 19.3691 723.719 20.1895 723.906 21.0215C724.094 21.8535 724.229 22.6855 724.311 23.5176C724.393 24.3379 724.434 25.1055 724.434 25.8203C724.434 26.207 724.422 26.582 724.398 26.9453C724.387 27.2969 724.363 27.625 724.328 27.9297H720.18C720.238 27.5078 720.273 27.1035 720.285 26.7168C720.309 26.3184 720.32 25.9258 720.32 25.5391C720.32 24.0156 720.139 22.6445 719.775 21.4258C719.412 20.207 718.902 19.1758 718.246 18.332C717.59 17.4766 716.805 16.8262 715.891 16.3809C714.988 15.9238 713.992 15.6953 712.902 15.6953C712.164 15.6953 711.537 15.7129 711.021 15.748C710.506 15.7832 710.055 15.8359 709.668 15.9062C709.281 15.9648 708.936 16.0352 708.631 16.1172C708.338 16.1992 708.039 16.2812 707.734 16.3633V27.9297H703.41V5.85156C702.742 5.99219 702.121 6.12695 701.547 6.25586C700.984 6.37305 700.562 6.48438 700.281 6.58984V2.125C700.949 2.00781 701.688 1.89648 702.496 1.79102C703.176 1.69727 703.967 1.60938 704.869 1.52734C705.771 1.43359 706.727 1.36328 707.734 1.31641V11.4062ZM749.746 21.0742V1.49219C750.754 1.52734 751.697 1.5918 752.576 1.68555C753.467 1.76758 754.252 1.85547 754.932 1.94922C755.717 2.06641 756.449 2.18359 757.129 2.30078V6.76562C756.191 6.48438 755.113 6.23828 753.895 6.02734V23.7461C754.527 23.6523 755.107 23.541 755.635 23.4121C756.174 23.2832 756.672 23.1484 757.129 23.0078V27.1562C756.285 27.2969 755.518 27.4141 754.826 27.5078C754.135 27.6016 753.49 27.6777 752.893 27.7363C752.307 27.7949 751.756 27.8418 751.24 27.877C750.725 27.9121 750.227 27.9414 749.746 27.9648L737.969 8.41797V27.9648C737.488 27.9414 736.99 27.9121 736.475 27.877C735.959 27.8418 735.408 27.7949 734.822 27.7363C734.236 27.6777 733.598 27.6016 732.906 27.5078C732.215 27.4141 731.453 27.2969 730.621 27.1562V22.6914C731.488 22.9727 732.566 23.2188 733.855 23.4297V5.67578C733.234 5.78125 732.654 5.89844 732.115 6.02734C731.576 6.15625 731.078 6.28516 730.621 6.41406V2.30078C731.277 2.18359 731.998 2.06641 732.783 1.94922C733.451 1.85547 734.23 1.76758 735.121 1.68555C736.012 1.5918 736.961 1.52734 737.969 1.49219L749.746 21.0742ZM775.094 0.542969C775.82 0.542969 776.559 0.619141 777.309 0.771484C778.059 0.912109 778.727 1.10547 779.312 1.35156C780.344 3.15625 781.281 4.99609 782.125 6.87109C782.98 8.73438 783.742 10.6562 784.41 12.6367C784.867 12.6953 785.33 12.7598 785.799 12.8301C786.268 12.8887 786.742 12.9531 787.223 13.0234V17.5234L785.711 17.1016C786.133 18.8477 786.49 20.6289 786.783 22.4453C787.076 24.2617 787.293 26.1133 787.434 28H783.25C783.074 25.9844 782.781 23.9922 782.371 22.0234C781.961 20.0547 781.492 18.168 780.965 16.3633C779.828 16.2695 778.744 16.1992 777.713 16.1523C776.693 16.1055 775.82 16.082 775.094 16.082C774.121 16.082 773.154 16.0996 772.193 16.1348C771.232 16.1699 770.266 16.2344 769.293 16.3281C768.766 18.1328 768.291 20.0195 767.869 21.9883C767.459 23.957 767.172 25.9609 767.008 28H762.824C762.953 26.1133 763.158 24.2676 763.439 22.4629C763.732 20.6582 764.09 18.8828 764.512 17.1367L763.141 17.5234V13.0234L765.848 12.6367C766.504 10.6562 767.254 8.73438 768.098 6.87109C768.953 4.99609 769.902 3.15625 770.945 1.35156C771.531 1.10547 772.193 0.912109 772.932 0.771484C773.67 0.619141 774.391 0.542969 775.094 0.542969ZM775.094 12.1094C775.797 12.1094 776.523 12.1211 777.273 12.1445C778.023 12.1562 778.797 12.1914 779.594 12.25C778.996 10.6211 778.404 9.20898 777.818 8.01367C777.244 6.80664 776.746 5.875 776.324 5.21875C776.113 5.125 775.914 5.06055 775.727 5.02539C775.539 4.99023 775.328 4.97266 775.094 4.97266C774.719 4.97266 774.332 5.05469 773.934 5.21875C773.512 5.875 773.008 6.80664 772.422 8.01367C771.836 9.20898 771.25 10.6211 770.664 12.25C771.438 12.1914 772.193 12.1562 772.932 12.1445C773.682 12.1211 774.402 12.1094 775.094 12.1094ZM801.602 1.14062C802.773 1.14062 803.969 1.19922 805.188 1.31641C806.418 1.42188 807.613 1.61523 808.773 1.89648C809.934 2.16602 811.023 2.54688 812.043 3.03906C813.062 3.51953 813.953 4.13477 814.715 4.88477C815.488 5.62305 816.098 6.51367 816.543 7.55664C816.988 8.58789 817.211 9.80078 817.211 11.1953C817.211 12.6133 817.018 13.8613 816.631 14.9395C816.256 16.0176 815.723 16.9551 815.031 17.752C814.352 18.5488 813.537 19.2168 812.588 19.7559C811.65 20.2832 810.619 20.7109 809.494 21.0391C808.369 21.3555 807.174 21.584 805.908 21.7246C804.643 21.8535 803.348 21.918 802.023 21.918C801.191 21.918 800.365 21.8945 799.545 21.8477C798.725 21.8008 797.898 21.7422 797.066 21.6719V27.9648H792.707V2.16016C792.965 2.07812 793.375 1.97852 793.938 1.86133C794.512 1.74414 795.186 1.63281 795.959 1.52734C796.744 1.42188 797.617 1.33398 798.578 1.26367C799.539 1.18164 800.547 1.14062 801.602 1.14062ZM802.867 5.00781C802.094 5.00781 801.355 5.04297 800.652 5.11328C799.949 5.17188 799.334 5.24219 798.807 5.32422C798.174 5.41797 797.594 5.52344 797.066 5.64062V17.6641C797.441 17.7461 797.857 17.8164 798.314 17.875C798.701 17.9336 799.152 17.9863 799.668 18.0332C800.184 18.0684 800.734 18.0859 801.32 18.0859C802.082 18.0859 802.885 18.0684 803.729 18.0332C804.584 17.9863 805.428 17.8867 806.26 17.7344C807.104 17.582 807.9 17.3594 808.65 17.0664C809.412 16.7617 810.08 16.3633 810.654 15.8711C811.24 15.3672 811.703 14.7461 812.043 14.0078C812.395 13.2695 812.57 12.3789 812.57 11.3359C812.57 10.4688 812.43 9.70703 812.148 9.05078C811.867 8.39453 811.486 7.83203 811.006 7.36328C810.525 6.89453 809.963 6.50781 809.318 6.20312C808.686 5.89844 808.006 5.6582 807.279 5.48242C806.564 5.30664 805.826 5.18359 805.064 5.11328C804.314 5.04297 803.582 5.00781 802.867 5.00781ZM831.801 1.21094C833.395 1.21094 834.936 1.31055 836.424 1.50977C837.924 1.69727 839.266 2.02539 840.449 2.49414C841.645 2.95117 842.623 3.57227 843.385 4.35742C844.158 5.14258 844.609 6.12109 844.738 7.29297L840.168 8.55859C840.168 7.85547 839.928 7.28125 839.447 6.83594C838.979 6.37891 838.352 6.02148 837.566 5.76367C836.793 5.49414 835.902 5.30664 834.895 5.20117C833.898 5.0957 832.867 5.04297 831.801 5.04297C830.758 5.04297 829.732 5.08984 828.725 5.18359C827.717 5.27734 826.809 5.45312 826 5.71094C825.203 5.96875 824.559 6.32617 824.066 6.7832C823.574 7.24023 823.328 7.83203 823.328 8.55859V12.7422H844.738V21.8477C844.738 22.6328 844.562 23.3359 844.211 23.957C843.871 24.5664 843.396 25.0996 842.787 25.5566C842.189 26.002 841.475 26.3828 840.643 26.6992C839.822 27.0039 838.932 27.25 837.971 27.4375C837.021 27.625 836.02 27.7598 834.965 27.8418C833.91 27.9238 832.855 27.9648 831.801 27.9648C830.723 27.9648 829.662 27.9238 828.619 27.8418C827.576 27.7598 826.586 27.625 825.648 27.4375C824.711 27.25 823.838 27.0039 823.029 26.6992C822.232 26.3828 821.529 26.002 820.92 25.5566C820.311 25.0996 819.818 24.5664 819.443 23.957C819.068 23.3477 818.84 22.6445 818.758 21.8477L823.328 20.582C823.328 21.3086 823.574 21.9004 824.066 22.3574C824.559 22.8145 825.203 23.1719 826 23.4297C826.809 23.6875 827.717 23.8633 828.725 23.957C829.732 24.0508 830.758 24.0977 831.801 24.0977C832.867 24.0977 833.898 24.0508 834.895 23.957C835.902 23.8516 836.793 23.6699 837.566 23.4121C838.352 23.1426 838.979 22.7793 839.447 22.3223C839.928 21.8652 840.168 21.2852 840.168 20.582V16.293H818.758V7.29297C818.758 6.50781 818.928 5.81641 819.268 5.21875C819.619 4.60938 820.094 4.08203 820.691 3.63672C821.301 3.17969 822.021 2.79883 822.854 2.49414C823.686 2.17773 824.582 1.92578 825.543 1.73828C826.516 1.55078 827.529 1.41602 828.584 1.33398C829.65 1.25195 830.723 1.21094 831.801 1.21094ZM861.367 0.542969C862.094 0.542969 862.832 0.619141 863.582 0.771484C864.332 0.912109 865 1.10547 865.586 1.35156C866.617 3.15625 867.555 4.99609 868.398 6.87109C869.254 8.73438 870.016 10.6562 870.684 12.6367C871.141 12.6953 871.604 12.7598 872.072 12.8301C872.541 12.8887 873.016 12.9531 873.496 13.0234V17.5234L871.984 17.1016C872.406 18.8477 872.764 20.6289 873.057 22.4453C873.35 24.2617 873.566 26.1133 873.707 28H869.523C869.348 25.9844 869.055 23.9922 868.645 22.0234C868.234 20.0547 867.766 18.168 867.238 16.3633C866.102 16.2695 865.018 16.1992 863.986 16.1523C862.967 16.1055 862.094 16.082 861.367 16.082C860.395 16.082 859.428 16.0996 858.467 16.1348C857.506 16.1699 856.539 16.2344 855.566 16.3281C855.039 18.1328 854.564 20.0195 854.143 21.9883C853.732 23.957 853.445 25.9609 853.281 28H849.098C849.227 26.1133 849.432 24.2676 849.713 22.4629C850.006 20.6582 850.363 18.8828 850.785 17.1367L849.414 17.5234V13.0234L852.121 12.6367C852.777 10.6562 853.527 8.73438 854.371 6.87109C855.227 4.99609 856.176 3.15625 857.219 1.35156C857.805 1.10547 858.467 0.912109 859.205 0.771484C859.943 0.619141 860.664 0.542969 861.367 0.542969ZM861.367 12.1094C862.07 12.1094 862.797 12.1211 863.547 12.1445C864.297 12.1562 865.07 12.1914 865.867 12.25C865.27 10.6211 864.678 9.20898 864.092 8.01367C863.518 6.80664 863.02 5.875 862.598 5.21875C862.387 5.125 862.188 5.06055 862 5.02539C861.812 4.99023 861.602 4.97266 861.367 4.97266C860.992 4.97266 860.605 5.05469 860.207 5.21875C859.785 5.875 859.281 6.80664 858.695 8.01367C858.109 9.20898 857.523 10.6211 856.938 12.25C857.711 12.1914 858.467 12.1562 859.205 12.1445C859.955 12.1211 860.676 12.1094 861.367 12.1094ZM890.652 0.753906C892.422 0.753906 894.098 0.912109 895.68 1.22852C897.262 1.5332 898.639 1.9668 899.811 2.5293C900.994 3.0918 901.932 3.76562 902.623 4.55078C903.314 5.32422 903.66 6.17969 903.66 7.11719V10.2109H899.02V8.48828C899.02 7.98438 898.826 7.50391 898.439 7.04688C898.053 6.57812 897.496 6.17383 896.77 5.83398C896.055 5.48242 895.182 5.20703 894.15 5.00781C893.119 4.79688 891.953 4.69141 890.652 4.69141C889.398 4.69141 888.256 4.79102 887.225 4.99023C886.193 5.17773 885.309 5.44141 884.57 5.78125C883.832 6.12109 883.258 6.52539 882.848 6.99414C882.449 7.45117 882.25 7.94922 882.25 8.48828V20.8984C882.25 21.4141 882.449 21.9004 882.848 22.3574C883.258 22.8145 883.832 23.2129 884.57 23.5527C885.309 23.8809 886.193 24.1445 887.225 24.3438C888.256 24.5312 889.398 24.625 890.652 24.625C891.953 24.625 893.119 24.5254 894.15 24.3262C895.182 24.1152 896.055 23.8398 896.77 23.5C897.496 23.1602 898.053 22.7676 898.439 22.3223C898.826 21.8652 899.02 21.3906 899.02 20.8984V19.1406H903.66V22.2344C903.66 22.8555 903.502 23.4473 903.186 24.0098C902.869 24.5605 902.424 25.0703 901.85 25.5391C901.287 26.0078 900.607 26.4297 899.811 26.8047C899.025 27.168 898.146 27.4844 897.174 27.7539C896.213 28.0117 895.182 28.2109 894.08 28.3516C892.979 28.4922 891.836 28.5625 890.652 28.5625C889.469 28.5625 888.326 28.4922 887.225 28.3516C886.123 28.2109 885.086 28.0117 884.113 27.7539C883.152 27.4844 882.273 27.168 881.477 26.8047C880.691 26.4297 880.012 26.0078 879.438 25.5391C878.875 25.0703 878.436 24.5605 878.119 24.0098C877.803 23.4473 877.645 22.8555 877.645 22.2344V7.11719C877.645 6.49609 877.803 5.9043 878.119 5.3418C878.436 4.7793 878.875 4.26367 879.438 3.79492C880.012 3.32617 880.691 2.9043 881.477 2.5293C882.273 2.1543 883.152 1.83789 884.113 1.58008C885.086 1.31055 886.123 1.10547 887.225 0.964844C888.326 0.824219 889.469 0.753906 890.652 0.753906ZM914.805 11.4062C915.262 11.5 915.725 11.5645 916.193 11.5996C916.662 11.6348 917.137 11.6523 917.617 11.6523C919.164 11.6523 920.43 11.3887 921.414 10.8613C922.398 10.334 923.172 9.60742 923.734 8.68164C924.297 7.75586 924.689 6.66602 924.912 5.41211C925.135 4.14648 925.258 2.78125 925.281 1.31641C926.289 1.36328 927.238 1.43359 928.129 1.52734C929.02 1.60938 929.811 1.69727 930.502 1.79102C931.299 1.89648 932.043 2.00781 932.734 2.125V6.58984C932.559 6.53125 932.33 6.4668 932.049 6.39648C931.779 6.32617 931.475 6.25586 931.135 6.18555C930.807 6.10352 930.449 6.02734 930.062 5.95703C929.688 5.875 929.301 5.79297 928.902 5.71094C928.82 6.46094 928.697 7.20508 928.533 7.94336C928.381 8.66992 928.164 9.36719 927.883 10.0352C927.602 10.7031 927.244 11.3184 926.811 11.8809C926.389 12.4316 925.867 12.9062 925.246 13.3047C926.066 13.5742 926.793 13.9727 927.426 14.5C928.059 15.0273 928.604 15.6367 929.061 16.3281C929.529 17.0078 929.916 17.752 930.221 18.5605C930.537 19.3691 930.789 20.1895 930.977 21.0215C931.164 21.8535 931.299 22.6855 931.381 23.5176C931.463 24.3379 931.504 25.1055 931.504 25.8203C931.504 26.207 931.492 26.582 931.469 26.9453C931.457 27.2969 931.434 27.625 931.398 27.9297H927.25C927.309 27.5078 927.344 27.1035 927.355 26.7168C927.379 26.3184 927.391 25.9258 927.391 25.5391C927.391 24.0156 927.209 22.6445 926.846 21.4258C926.482 20.207 925.973 19.1758 925.316 18.332C924.66 17.4766 923.875 16.8262 922.961 16.3809C922.059 15.9238 921.062 15.6953 919.973 15.6953C919.234 15.6953 918.607 15.7129 918.092 15.748C917.576 15.7832 917.125 15.8359 916.738 15.9062C916.352 15.9648 916.006 16.0352 915.701 16.1172C915.408 16.1992 915.109 16.2812 914.805 16.3633V27.9297H910.48V5.85156C909.812 5.99219 909.191 6.12695 908.617 6.25586C908.055 6.37305 907.633 6.48438 907.352 6.58984V2.125C908.02 2.00781 908.758 1.89648 909.566 1.79102C910.246 1.69727 911.037 1.60938 911.939 1.52734C912.842 1.43359 913.797 1.36328 914.805 1.31641V11.4062Z" fill="url(#paint0_linear)"/>
<defs>
<linearGradient id="paint0_linear" x1="466.5" y1="-13" x2="466.5" y2="32" gradientUnits="userSpaceOnUse">
<stop offset="0.078125" stop-color="white"/>
<stop offset="1" stop-color="white" stop-opacity="0"/>
</linearGradient>
</defs>
</svg>
